<svg width="58" height="54" viewBox="0 0 58 54" fill="none" xmlns="http://www.w3.org/2000/svg">
<path d="M2.74177 54H36.0456C37.5575 54 38.7883 52.836 38.7883 51.4054V49.7473H42.7507C49.7194 49.7473 55.3888 44.3834 55.3888 37.7897L55.3883 15.8292C56.411 15.4768 57.1471 14.5562 57.1471 13.4683V10.4646H58V8.7504H57.1471V6.00945C57.1471 5.53632 56.7417 5.15237 56.2413 5.15237H55.3884V0H53.5766V5.15237H52.7238C52.2229 5.15237 51.8179 5.53632 51.8179 6.00945V8.75H50.965V10.4642H51.8179V13.4679C51.8179 14.5559 52.554 15.4764 53.5767 15.8288V37.7893C53.5767 43.4373 48.7201 48.0316 42.7516 48.0316H38.7891V41.4165C43.5761 41.1963 47.4022 37.4527 47.4022 32.8698V20.3899C48.4248 20.0375 49.161 19.1169 49.161 18.0294V14.7498H50.0139V13.0356H49.161V10.5706C49.161 10.0974 48.7556 9.71347 48.2551 9.71347H47.4023V4.56151H45.5905V9.71347H44.7385C44.2376 9.71347 43.8326 10.0974 43.8326 10.5706V13.0356H42.9789V14.7498H43.8326V18.0294C43.8326 19.117 44.5683 20.0371 45.5905 20.3899V32.8698C45.5905 36.5077 42.5772 39.4842 38.7891 39.7024V6.33079C38.7891 4.89996 37.5584 3.73582 36.0465 3.73582H2.74263C1.23081 3.73582 0 4.89986 0 6.33079V51.4044C0.000417032 52.8348 1.2307 53.999 2.74263 53.999L2.74177 54ZM53.6302 6.86761H55.336V8.75111H53.6302V6.86761ZM53.6302 10.4656H55.336V13.4693C55.336 13.914 54.954 14.2763 54.4831 14.2763C54.0127 14.2763 53.6302 13.914 53.6302 13.4693L53.6302 10.4656ZM45.6439 11.4288H47.3484V13.0369H45.6439V11.4288ZM45.6439 14.751H47.3484V18.0306C47.3484 18.4753 46.9664 18.8372 46.4956 18.8372C46.026 18.8372 45.6435 18.4757 45.6435 18.0306L45.6439 14.751ZM1.81172 6.33213C1.81172 5.84676 2.2292 5.45177 2.74218 5.45177H36.0461C36.559 5.45177 36.9765 5.84677 36.9765 6.33213V51.4057C36.9765 51.8911 36.559 52.2861 36.0461 52.2861H2.74218C2.22919 52.2861 1.81172 51.8915 1.81172 51.4057V6.33213Z" fill="#4EBD69"/>
<path d="M4.57919 18.3797H34.2113C34.7122 18.3797 35.1172 17.9958 35.1172 17.5226V8.07028C35.1172 7.59715 34.7118 7.2132 34.2113 7.2132H4.57919C4.07831 7.2132 3.67334 7.59715 3.67334 8.07028V17.5226C3.67334 17.9958 4.07831 18.3797 4.57919 18.3797V18.3797ZM5.48505 8.92736H33.3054V16.6652H5.48505V8.92736Z" fill="#4EBD69"/>
<path d="M9.0293 11.9388H17.8918V13.653H9.0293V11.9388Z" fill="#4EBD69"/>
<path d="M20.8987 11.9388H29.7604V13.653H20.8987V11.9388Z" fill="#4EBD69"/>
<path d="M19.3984 47.065C24.9478 47.065 29.3653 42.8365 29.3653 37.634C29.3653 32.4133 24.9174 28.1958 19.3984 28.1958C13.8594 28.1958 9.42273 32.4264 9.42273 37.634C9.42273 42.8234 13.8481 47.065 19.3984 47.065V47.065ZM19.3984 45.3504C15.795 45.3504 12.6883 43.143 11.629 39.9759H27.1614C26.1096 43.1419 23.005 45.3504 19.3979 45.3504H19.3984ZM19.3984 29.9097C22.9959 29.9097 26.0997 32.1175 27.1594 35.2838L11.6291 35.2842C12.688 32.1183 15.7954 29.9097 19.3985 29.9097L19.3984 29.9097ZM27.5232 36.9984C27.5636 37.4518 27.5624 37.8239 27.5236 38.2615H11.264C11.2248 37.8243 11.224 37.4494 11.2644 36.9984H27.5232Z" fill="#4EBD69"/>
<path d="M18.3383 25.4672H20.15V27.275H18.3383V25.4672Z" fill="#4EBD69"/>
<path d="M14.577 28.3038L13.0076 29.1608L12.053 27.5959L13.6223 26.7388L14.577 28.3038Z" fill="#4EBD69"/>
<path d="M9.38591 33.3174L7.73145 32.4137L8.6373 30.9288L10.2918 31.8325L9.38591 33.3174Z" fill="#4EBD69"/>
<path d="M6.53943 36.9157H8.4496V38.6299H6.53943V36.9157Z" fill="#4EBD69"/>
<path d="M8.79013 44.578L7.88428 43.0931L9.53874 42.1895L10.4446 43.6743L8.79013 44.578Z" fill="#4EBD69"/>
<path d="M13.8797 48.6631L12.3103 47.8061L13.2654 46.2407L14.8347 47.0977L13.8797 48.6631Z" fill="#4EBD69"/>
<path d="M18.6383 47.9864H20.45V49.7941H18.6383V47.9864Z" fill="#4EBD69"/>
<path d="M25.1681 48.5228L24.2126 46.9578L25.7816 46.1003L26.7371 47.6653L25.1681 48.5228Z" fill="#4EBD69"/>
<path d="M30.149 44.3335L28.4958 43.4295L29.4021 41.9457L31.0553 42.8498L30.149 44.3335Z" fill="#4EBD69"/>
<path d="M30.3389 36.6318H32.249V38.346H30.3389V36.6318Z" fill="#4EBD69"/>
<path d="M28.3446 31.59L29.9991 30.6863L30.9049 32.1712L29.2505 33.0749L28.3446 31.59Z" fill="#4EBD69"/>
<path d="M25.5204 29.019L23.951 28.1619L24.9061 26.5966L26.4755 27.4536L25.5204 29.019Z" fill="#4EBD69"/>
<path d="M5.29773 20.3577H8.78517V22.0719H5.29773V20.3577Z" fill="#4EBD69"/>
<path d="M13.5337 20.3577H17.0203V22.0719H13.5337V20.3577Z" fill="#4EBD69"/>
<path d="M21.7688 20.3577H25.2554V22.0719H21.7688V20.3577Z" fill="#4EBD69"/>
<path d="M30.0048 20.3577H33.4913V22.0719H30.0048V20.3577Z" fill="#4EBD69"/>
</svg>
