<svg width="55" height="55" viewBox="0 0 55 55" fill="none" xmlns="http://www.w3.org/2000/svg">
<path d="M54.0834 22.9167H47.6668C47.4859 22.9172 47.3087 22.9708 47.1582 23.0706L44.6418 24.75H30.2499V10.3581L31.9293 7.83897C32.0288 7.6892 32.0824 7.51323 32.0832 7.33318V0.916648C32.0832 0.673574 31.9866 0.440316 31.8148 0.268447C31.6429 0.096578 31.4096 0 31.1666 0H23.8334C23.3272 0 22.9167 0.410449 22.9167 0.916648V7.33318C22.9172 7.51406 22.9708 7.69125 23.0706 7.84184L24.75 10.3582V24.7501H10.3581L7.83897 23.0707C7.68919 22.9712 7.51323 22.9176 7.33318 22.9168H0.916648C0.410449 22.9168 0 23.3272 0 23.8334V31.1666C0 31.4097 0.0965759 31.6429 0.268447 31.8148C0.440318 31.9867 0.673574 32.0833 0.916648 32.0833H7.33318C7.51406 32.0829 7.69125 32.0292 7.84184 31.9294L10.3582 30.25H24.7501V44.6419L23.0707 47.161C22.9712 47.3108 22.9176 47.4868 22.9168 47.6668V54.0834C22.9168 54.3264 23.0134 54.5597 23.1852 54.7316C23.3571 54.9034 23.5904 55 23.8334 55H31.1666C31.4097 55 31.6429 54.9034 31.8148 54.7316C31.9867 54.5597 32.0833 54.3264 32.0833 54.0834V47.6668C32.0828 47.4859 32.0292 47.3088 31.9294 47.1582L30.25 44.6418V30.2499H44.6419L47.161 31.9293C47.3108 32.0288 47.4868 32.0824 47.6668 32.0832H54.0834C54.3264 32.0832 54.5597 31.9866 54.7316 31.8148C54.9034 31.6429 55 31.4096 55 31.1666V23.8334C55 23.5903 54.9034 23.3571 54.7316 23.1852C54.5597 23.0133 54.3264 22.9167 54.0834 22.9167V22.9167ZM53.1667 30.2499H47.9418L45.4227 28.5705C45.2729 28.4711 45.0969 28.4175 44.9169 28.4167H29.3339C28.8277 28.4167 28.4172 28.8271 28.4172 29.3333V44.9163C28.4176 45.0972 28.4712 45.2744 28.5711 45.425L30.2505 47.9413V53.1662H24.7506V47.9413L26.43 45.4221C26.5294 45.2724 26.5831 45.0964 26.5839 44.9163V29.3333C26.5839 29.0903 26.4873 28.857 26.3154 28.6851C26.1436 28.5133 25.9103 28.4167 25.6672 28.4167H10.0842C9.90334 28.4171 9.72615 28.4707 9.57556 28.5706L7.05923 30.25H1.83434V24.7501H7.05923L9.57839 26.4295C9.72817 26.5289 9.90413 26.5825 10.0842 26.5834H25.6672C25.9103 26.5834 26.1435 26.4868 26.3154 26.3149C26.4873 26.143 26.5838 25.9098 26.5838 25.6667V10.0837C26.5834 9.90282 26.5298 9.72563 26.43 9.57504L24.7506 7.05871V1.83382H30.2504V7.05871L28.571 9.57787C28.4716 9.72764 28.418 9.90361 28.4172 10.0837V25.6667C28.4172 25.9097 28.5137 26.143 28.6856 26.3149C28.8575 26.4867 29.0907 26.5833 29.3338 26.5833H44.9168C45.0977 26.5829 45.2749 26.5293 45.4255 26.4294L47.9418 24.75H53.1667V30.2499Z" fill="#4EBD69"/>
</svg>
