<svg width="60" height="60" viewBox="0 0 60 60" fill="none" xmlns="http://www.w3.org/2000/svg">
<path d="M51.75 42H48V33H49.5C49.6989 33 49.8897 32.921 50.0304 32.7804C50.171 32.6397 50.25 32.4489 50.25 32.25V23.25C50.25 23.0511 50.171 22.8603 50.0304 22.7196C49.8897 22.579 49.6989 22.5 49.5 22.5H42C41.5858 22.5 41.25 22.8358 41.25 23.25V32.25C41.25 32.4489 41.329 32.6397 41.4696 32.7804C41.6103 32.921 41.8011 33 42 33H43.5V42H37.5V39H39C39.1989 39 39.3897 38.921 39.5304 38.7804C39.671 38.6397 39.75 38.4489 39.75 38.25V29.25C39.75 29.0511 39.671 28.8603 39.5304 28.7196C39.3897 28.579 39.1989 28.5 39 28.5H31.5C31.0858 28.5 30.75 28.8358 30.75 29.25V38.25C30.75 38.4489 30.829 38.6397 30.9696 38.7804C31.1103 38.921 31.3011 39 31.5 39H33V42H27V39H28.5C28.6989 39 28.8897 38.921 29.0304 38.7804C29.171 38.6397 29.25 38.4489 29.25 38.25V29.25C29.25 29.0511 29.171 28.8603 29.0304 28.7196C28.8897 28.579 28.6989 28.5 28.5 28.5H21C20.5858 28.5 20.25 28.8358 20.25 29.25V38.25C20.25 38.4489 20.329 38.6397 20.4696 38.7804C20.6103 38.921 20.8011 39 21 39H22.5V42H16.5V33H18C18.1989 33 18.3897 32.921 18.5304 32.7804C18.671 32.6397 18.75 32.4489 18.75 32.25V23.25C18.75 23.0511 18.671 22.8603 18.5304 22.7196C18.3897 22.579 18.1989 22.5 18 22.5H10.5C10.0858 22.5 9.75 22.8358 9.75 23.25V32.25C9.75 32.4489 9.82902 32.6397 9.96964 32.7804C10.1103 32.921 10.3011 33 10.5 33H12V42H8.25C7.83583 42 7.5 42.3358 7.5 42.75V45.75C7.5 45.9489 7.57902 46.1397 7.71964 46.2804C7.86027 46.421 8.05112 46.5 8.25 46.5H51.75C51.9489 46.5 52.1397 46.421 52.2804 46.2804C52.421 46.1397 52.5 45.9489 52.5 45.75V42.75C52.5 42.5511 52.421 42.3603 52.2804 42.2196C52.1397 42.079 51.9489 42 51.75 42ZM48.75 24V25.5H42.75V24H48.75ZM42.75 27H48.75V31.5H42.75V27ZM45 33H46.5V42H45V33ZM38.25 30V31.5H32.25V30H38.25ZM32.25 33H38.25V37.5H32.25V33ZM34.5 39H36V42H34.5V39ZM27.75 30V31.5H21.75V30H27.75ZM21.75 33H27.75V37.5H21.75V33ZM24 39H25.5V42H24V39ZM17.25 24V25.5H11.25V24H17.25ZM11.25 27H17.25V31.5H11.25V27ZM13.5 33H15V42H13.5V33ZM51 45H9V43.5H51V45Z" fill="#4EBD69"/>
<path d="M51.75 1.5H8.25C7.83583 1.5 7.5 1.83583 7.5 2.25V5.25C7.5 5.44888 7.57902 5.63973 7.71964 5.78036C7.86027 5.92098 8.05112 6 8.25 6H12V14.25C12 14.4489 12.079 14.6397 12.2196 14.7804C12.3603 14.921 12.5511 15 12.75 15H13.5V19.5H12.75V21H15.75V19.5H15V15H15.75C15.9489 15 16.1397 14.921 16.2804 14.7804C16.421 14.6397 16.5 14.4489 16.5 14.25V6H22.5V14.25C22.5 14.4489 22.579 14.6397 22.7196 14.7804C22.8603 14.921 23.0511 15 23.25 15H24V19.5H23.25V21H26.25V19.5H25.5V15H26.25C26.4489 15 26.6397 14.921 26.7804 14.7804C26.921 14.6397 27 14.4489 27 14.25V6H33V14.25C33 14.4489 33.079 14.6397 33.2196 14.7804C33.3603 14.921 33.5511 15 33.75 15H34.5V19.5H33.75V21H36.75V19.5H36V15H36.75C36.9489 15 37.1397 14.921 37.2804 14.7804C37.421 14.6397 37.5 14.4489 37.5 14.25V6H43.5V14.25C43.5 14.4489 43.579 14.6397 43.7196 14.7804C43.8603 14.921 44.0511 15 44.25 15H45V19.5H44.25V21H47.25V19.5H46.5V15H47.25C47.4489 15 47.6397 14.921 47.7804 14.7804C47.921 14.6397 48 14.4489 48 14.25V6H51.75C51.9489 6 52.1397 5.92098 52.2804 5.78036C52.421 5.63973 52.5 5.44888 52.5 5.25V2.25C52.5 2.05112 52.421 1.86027 52.2804 1.71964C52.1397 1.57902 51.9489 1.5 51.75 1.5ZM13.5 13.5V12H15V13.5H13.5ZM15 10.5H13.5V6H15V10.5ZM24 13.5V12H25.5V13.5H24ZM25.5 10.5H24V6H25.5V10.5ZM34.5 13.5V12H36V13.5H34.5ZM36 10.5H34.5V6H36V10.5ZM45 13.5V12H46.5V13.5H45ZM46.5 10.5H45V6H46.5V10.5ZM51 4.5H9V3H51V4.5Z" fill="#4EBD69"/>
</svg>
