<svg width="48" height="48" viewBox="0 0 48 48" fill="none" xmlns="http://www.w3.org/2000/svg">
<path d="M47.9999 7.74214V2.32268C47.9999 1.04203 46.958 0 45.6772 0H3.87094C2.59054 0 1.5486 1.04194 1.5486 2.32268V7.74214C1.5486 8.59593 2.24336 9.29065 3.09712 9.29065V19.6595C1.08754 20.8676 0 22.3756 0 23.9998V41.0321C0 43.0109 1.6128 44.8176 4.54149 46.1191C7.27029 47.3317 10.8813 47.9997 14.7098 47.9997C18.5381 47.9997 22.1492 47.3317 24.8781 46.1191C27.8068 44.8172 29.4196 43.0109 29.4196 41.0321V29.4195H45.6779C46.9585 29.4195 48.0005 28.3776 48.0005 27.0968V21.6774C48.0005 20.8236 47.3058 20.1289 46.452 20.1289V9.29031C47.3058 9.29031 48.0005 8.59555 48.0005 7.74214H47.9999ZM3.09677 2.32268C3.09677 1.89578 3.44398 1.54858 3.87088 1.54858H45.6772C46.1041 1.54858 46.4513 1.89579 46.4513 2.32268V7.74214H44.9028L44.9031 3.09686H4.6448V7.74214H3.09628L3.09677 2.32268ZM37.1614 24.7738V15.4832H40.2581V24.7738H37.1614ZM4.64563 18.8689V15.4835H7.7424V17.837C6.6258 18.1142 5.5848 18.4594 4.64563 18.8689V18.8689ZM9.29058 15.4835H12.3873V17.1168C11.3206 17.1941 10.283 17.3237 9.29058 17.5042V15.4835ZM12.3873 4.64494V13.9355H9.29058V4.64494H12.3873ZM35.6134 4.64494V13.9355H32.5166V4.64494H35.6134ZM30.9681 13.9355H27.8713V4.64494H30.9681V13.9355ZM26.3231 13.9355H23.2264V4.64494H26.3231V13.9355ZM21.6778 13.9355H18.5811V4.64494H21.6778V13.9355ZM17.0329 13.9355H13.9361V4.64494H17.0329V13.9355ZM13.9361 15.4837H17.0329V17.117C16.2715 17.0617 15.4957 17.0323 14.7102 17.0323C14.4511 17.0323 14.1929 17.0359 13.9361 17.042L13.9361 15.4837ZM18.5811 15.4837H21.6778V17.8371C20.6974 17.5937 19.6595 17.4035 18.5811 17.2693V15.4837ZM23.2264 15.4837H26.3231V19.6592C25.8845 19.3957 25.4031 19.146 24.8784 18.9129C24.3584 18.6819 23.806 18.4706 23.2264 18.2801L23.2264 15.4837ZM29.4199 23.9998C29.4199 22.8604 28.8842 21.7786 27.8714 20.8166V15.4836H30.9682V24.7742H29.4196L29.4199 23.9998ZM32.5167 15.4837H35.6134V24.7742H32.5167V15.4837ZM37.1616 13.9355V4.64494H40.2584V13.9355H37.1616ZM6.19389 7.74197V4.6452H7.7424V13.9358H4.64563V9.29048C5.49909 9.29048 6.1938 8.59572 6.1938 7.74231L6.19389 7.74197ZM5.17063 20.3282C7.70589 19.2013 11.0937 18.5808 14.7098 18.5808C18.3262 18.5808 21.7139 19.2012 24.2489 20.3282C26.5508 21.3512 27.8707 22.6898 27.8707 24.0002C27.8707 25.3107 26.5505 26.6493 24.2489 27.6722C21.7137 28.7992 18.3259 29.4197 14.7098 29.4197C11.0934 29.4197 7.70563 28.7993 5.17063 27.6722C2.86877 26.6493 1.54886 25.3107 1.54886 24.0002C1.54886 22.6898 2.86869 21.3512 5.17063 20.3282V20.3282ZM23.2264 42.0182C22.2782 42.3618 21.2365 42.642 20.1296 42.8563V30.4963C21.2235 30.2971 22.2631 30.0376 23.2264 29.7208V42.0182ZM6.19406 29.72C7.15732 30.037 8.19695 30.2965 9.29083 30.4954V42.8554C8.18392 42.6411 7.14232 42.3609 6.19406 42.0173V29.72ZM10.8393 30.7308C11.8421 30.8557 12.8784 30.933 13.9361 30.9581V43.3447C12.8744 43.3186 11.8368 43.2385 10.8393 43.1076V30.7308ZM15.4843 30.9581C16.542 30.933 17.5783 30.8557 18.5811 30.7308V43.1071C17.5836 43.238 16.546 43.318 15.4843 43.3441V30.9581ZM1.54886 27.1834C2.29484 27.8918 3.29966 28.5351 4.54183 29.0872C4.57565 29.1022 4.61147 29.1163 4.64562 29.131V41.3599C2.66948 40.3738 1.54885 39.1434 1.54885 37.936L1.54886 27.1834ZM24.2494 44.7042C21.7142 45.8309 18.3264 46.4513 14.7103 46.4513C11.0939 46.4513 7.70615 45.8309 5.17114 44.7039C2.92149 43.7041 1.61032 42.4026 1.55203 41.1206C2.29801 41.8281 3.30146 42.4702 4.54235 43.0221C7.27115 44.2351 10.8822 44.9031 14.7106 44.9031C18.539 44.9031 22.15 44.2351 24.8789 43.0224C26.1198 42.471 27.1233 41.8284 27.8692 41.1209C27.811 42.4029 26.4998 43.7044 24.2501 44.7042H24.2494ZM24.7744 41.3596V29.1308C24.8086 29.1157 24.8444 29.102 24.8782 29.0869C26.1207 28.5348 27.1252 27.8916 27.8712 27.1831V37.936C27.8712 39.1433 26.7502 40.3738 24.7744 41.3602L24.7744 41.3596ZM46.4516 27.0968C46.4516 27.5237 46.1044 27.8709 45.6775 27.8709H29.4192V26.3224H44.9026V21.6771H46.4511L46.4516 27.0968ZM43.3548 21.6773V24.7741H41.8063V15.4835H44.9031V20.1288C44.0496 20.1288 43.3549 20.8232 43.3549 21.677L43.3548 21.6773ZM44.9033 13.9356H41.8066V4.64505H43.3551V7.74182C43.3551 8.59561 44.0498 9.29034 44.9036 9.29034L44.9033 13.9356Z" fill="#4EBD69"/>
<path d="M6.38648 26.5012C8.66194 27.3845 11.6177 27.8707 14.7095 27.8707C17.8012 27.8707 20.7571 27.3842 23.0326 26.501C25.3549 25.5992 26.041 24.6554 26.1959 24.3872L26.4203 23.9995L26.1959 23.6118C26.0409 23.3439 25.3549 22.3997 23.0326 21.4981C20.7571 20.6151 17.8013 20.129 14.7095 20.129C11.6178 20.129 8.66194 20.6155 6.38648 21.4987C4.06414 22.4004 3.37808 23.3442 3.22311 23.6124L2.99878 23.9998L3.22311 24.3875C3.37813 24.6554 4.06452 25.5996 6.38648 26.5012V26.5012ZM6.94698 22.9421C9.04801 22.1265 11.8046 21.6771 14.7094 21.6771C17.6143 21.6771 20.371 22.1265 22.4719 22.9418C23.4978 23.3399 24.1085 23.7262 24.4547 23.9995C24.1085 24.2727 23.4975 24.6594 22.4719 25.0575C20.3709 25.8732 17.614 26.3225 14.7094 26.3225C11.8045 26.3225 9.04792 25.8732 6.94698 25.0579C5.92106 24.6598 5.31035 24.2734 4.96415 24.0002C5.31069 23.7266 5.92141 23.3402 6.94698 22.9421V22.9421Z" fill="#4EBD69"/>
</svg>
