<svg width="76" height="67" viewBox="0 0 76 67" fill="none" xmlns="http://www.w3.org/2000/svg">
<path d="M31.3902 37.296C31.9424 37.0197 32.5714 36.8496 33.2495 36.8496C33.775 36.8496 34.1995 36.4753 34.1995 36.0121C34.1995 35.5489 33.775 35.1746 33.2495 35.1746C31.154 35.1746 29.4495 33.672 29.4495 31.8246C29.4495 31.3614 29.025 30.9871 28.4995 30.9871C27.974 30.9871 27.5495 31.3614 27.5495 31.8246C27.5495 32.6991 27.1589 33.4888 26.535 34.0859L23.7495 32.2434V23.4496C23.7495 22.9875 23.325 22.6121 22.7995 22.6121H21.8495V20.3785L23.5388 18.3928L26.6814 24.6262L28.4181 23.9461L25.2114 17.5871H28.4995C29.025 17.5871 29.4495 17.2117 29.4495 16.7496V13.3996C29.4495 12.9375 29.025 12.5621 28.4995 12.5621H17.0995C16.7823 12.5621 16.4859 12.7019 16.309 12.9348L12.509 17.9598C12.3152 18.2171 12.2961 18.5468 12.4615 18.819C12.6269 19.0912 12.9488 19.2621 13.2995 19.2621H16.1495V22.6121H15.1995C14.6741 22.6121 14.2495 22.9874 14.2495 23.4496V32.4082L8.70903 39.7349C8.60555 39.8721 8.54956 40.0347 8.54956 40.1996V51.9246C8.54956 52.3878 8.9741 52.7621 9.49956 52.7621H34.1996C34.725 52.7621 35.1496 52.3878 35.1496 51.9246V40.1996C35.1496 39.9368 35.0088 39.6878 34.7696 39.5296L31.3902 37.296ZM28.4995 34.5992C28.9215 35.1585 29.4677 35.6393 30.1022 36.0121C29.4678 36.3841 28.9224 36.8657 28.4995 37.4251C28.0775 36.8657 27.5313 36.3849 26.8968 36.0121C27.5312 35.6401 28.0775 35.1585 28.4995 34.5992ZM17.0995 17.5869H15.074L17.6076 14.2369H27.5495V15.9119H23.7495C23.4514 15.9119 23.1689 16.0361 22.9895 16.2469L20.1395 19.5969C20.0161 19.742 19.9495 19.9185 19.9495 20.0994V22.6119H18.0495V18.4244C18.0495 17.9623 17.625 17.5869 17.0995 17.5869ZM21.8495 24.2869V25.9619H16.1495V24.2869H21.8495ZM33.2495 51.0869H10.4495V40.4531L15.99 33.1264C16.0935 32.9892 16.1495 32.8266 16.1495 32.6617V27.6367H21.8495V32.6617C21.8495 32.9245 21.9903 33.1735 22.2295 33.3317L24.7954 35.0291C24.4612 35.114 24.1151 35.1741 23.7495 35.1741C23.224 35.1741 22.7995 35.5484 22.7995 36.0116C22.7995 36.4749 23.224 36.8491 23.7495 36.8491C25.845 36.8491 27.5495 38.3518 27.5495 40.1991C27.5495 40.6624 27.974 41.0366 28.4995 41.0366C29.025 41.0366 29.4495 40.6624 29.4495 40.1991C29.4495 39.5662 29.6616 38.9799 30.0081 38.4748L33.2495 40.6179L33.2495 51.0869Z" fill="#4EBD69"/>
<path d="M22.8001 43.55C20.7046 43.55 19.0001 42.0474 19.0001 40.2C19.0001 39.7368 18.5756 39.3625 18.0501 39.3625C17.5246 39.3625 17.1001 39.7368 17.1001 40.2C17.1001 42.0474 15.3956 43.55 13.3001 43.55C12.7746 43.55 12.3501 43.9243 12.3501 44.3875C12.3501 44.8508 12.7746 45.225 13.3001 45.225C15.3956 45.225 17.1001 46.7276 17.1001 48.575C17.1001 49.0383 17.5246 49.4125 18.0501 49.4125C18.5756 49.4125 19.0001 49.0383 19.0001 48.575C19.0001 46.7276 20.7046 45.225 22.8001 45.225C23.3256 45.225 23.7501 44.8508 23.7501 44.3875C23.7501 43.9243 23.3256 43.55 22.8001 43.55ZM18.0501 45.8005C17.6281 45.2411 17.0819 44.7596 16.4474 44.3875C17.0818 44.0155 17.6272 43.534 18.0501 42.9746C18.4721 43.5339 19.0183 44.0147 19.6528 44.3875C19.0184 44.7595 18.4721 45.2411 18.0501 45.8005Z" fill="#4EBD69"/>
<path d="M66.5001 0.837524H47.7487C44.3066 0.837524 41.0873 2.33009 39.1368 4.83063L31.5177 14.6011C31.4095 14.7402 31.3506 14.9062 31.3506 15.0752V25.1252C31.3506 25.5873 31.7751 25.9627 32.3006 25.9627H66.5006C67.026 25.9627 67.4506 25.5873 67.4506 25.1252V1.67523C67.4506 1.21311 67.026 0.837725 66.5006 0.837725L66.5001 0.837524ZM65.5501 24.2875H33.2501V15.3357L40.7021 5.78069C42.2971 3.73365 44.9313 2.51252 47.7481 2.51252H65.5495L65.5501 24.2875Z" fill="#4EBD69"/>
<path d="M42.5536 7.54423L37.2098 14.611C37.016 14.8682 36.9969 15.198 37.1623 15.4702C37.3277 15.7424 37.6496 15.9125 38.0003 15.9125H62.7003C63.2258 15.9125 63.6503 15.5371 63.6503 15.075V5.025C63.6503 4.56288 63.2258 4.1875 62.7003 4.1875H49.6674C46.8025 4.1875 44.1434 5.44222 42.5538 7.5442L42.5536 7.54423ZM49.6671 5.86253H61.75V14.2375H39.7741L44.1335 8.47295C45.3698 6.83834 47.4389 5.86253 49.6664 5.86253H49.6671Z" fill="#4EBD69"/>
<path d="M57.95 17.5875H63.65V19.2625H57.95V17.5875Z" fill="#4EBD69"/>
<path d="M45.8779 11.1325L49.6779 7.78253L51.0215 8.967L47.2215 12.317L45.8779 11.1325Z" fill="#4EBD69"/>
<path d="M50.6279 11.1325L54.4279 7.78253L55.7715 8.967L51.9715 12.317L50.6279 11.1325Z" fill="#4EBD69"/>
</svg>
