<svg width="40" height="51" viewBox="0 0 40 51" fill="none" xmlns="http://www.w3.org/2000/svg">
<path d="M39.6083 0.237941C39.36 0.0486844 39.03 -0.0338541 38.708 0.0127474L24.8876 2.00495C24.3837 2.07752 24.0048 2.4443 23.9558 2.89041H22.4291C21.9698 1.72997 20.7308 0.89712 19.2776 0.89712H12.31C10.4668 0.89712 8.96674 2.23797 8.96674 3.88537V9.66207H8.75181C6.90738 9.66207 5.40857 11.0029 5.40857 12.6503V16.3249C2.2312 17.5451 0.000398011 20.369 0.000398011 23.6502L0 43.0312C0 47.4251 3.99963 51 8.91546 51H22.6718C27.5876 51 31.5872 47.4251 31.5872 43.0312L31.5876 23.6502C31.5876 20.3691 29.3564 17.5452 26.1794 16.3249L26.179 12.6503C26.179 11.0028 24.6801 9.66207 22.8358 9.66207H22.6209V8.13907H23.955C23.9984 8.58127 24.3674 8.94982 24.8645 9.03165L38.685 11.2917C38.7518 11.3027 38.8187 11.3077 38.8856 11.3077C39.1443 11.3077 39.397 11.2269 39.6 11.0765C39.8531 10.8872 40 10.6072 40 10.3116L39.9996 0.995849C39.9996 0.704137 39.8571 0.427005 39.6084 0.237748L39.6083 0.237941ZM11.1961 3.88583C11.1961 3.33584 11.6964 2.88968 12.3105 2.88968H19.2781C19.8923 2.88968 20.3926 3.33579 20.3926 3.88583V9.66216H11.1962L11.1961 3.88583ZM29.3591 38.3866H14.7052C14.0898 38.3866 13.5907 37.9394 13.5907 37.3905V26.8935C13.5907 26.3446 14.0898 25.8974 14.7052 25.8974H29.3591V38.3866ZM29.3591 23.6503V23.9053H14.7052C12.8607 23.9053 11.3619 25.2462 11.3619 26.8936V37.3905C11.3619 39.038 12.8608 40.3788 14.7052 40.3788H29.3591L29.3595 43.0316C29.3595 46.3266 26.3593 49.0082 22.6729 49.0082H8.91562C5.22921 49.0082 2.22903 46.3266 2.22903 43.0316V23.6506C2.22903 20.3546 5.22921 17.674 8.91562 17.674H22.6719C26.3587 17.674 29.3589 20.3546 29.3589 23.6506L29.3591 23.6503ZM22.8361 11.6543C23.4514 11.6543 23.9506 12.1014 23.9506 12.6504V15.5401H7.63782V12.6504C7.63782 12.1015 8.13692 11.6543 8.7523 11.6543H22.8361ZM23.9506 6.14687H22.6212V4.88288H23.9506V6.14687ZM37.771 9.117L26.1799 7.22161V3.83701L37.771 2.16539V9.117Z" fill="#4EBD69"/>
</svg>
