<svg width="50" height="50" viewBox="0 0 50 50" fill="none" xmlns="http://www.w3.org/2000/svg">
<path fill-rule="evenodd" clip-rule="evenodd" d="M13.8533 0V5.31365H9.53172C9.05646 5.31207 8.66956 5.70691 8.66763 6.19583V10.6257H0.903527C0.876248 10.6245 0.848586 10.6245 0.821306 10.6257C0.345278 10.6494 -0.0220263 11.0648 0.0010286 11.5545C0.0236969 12.0438 0.427878 12.4216 0.903533 12.3983H8.66764V16.8215C8.66802 17.0566 8.75946 17.2819 8.9216 17.4475C9.08373 17.6131 9.30311 17.706 9.53172 17.7052H13.8533V24.7896H32.791V29.2127C32.7891 29.7016 33.1729 30.0996 33.6481 30.1016H36.23V46.0377H42.256V49.0949C42.251 49.3332 42.3393 49.5633 42.5015 49.7336C42.6632 49.904 42.8853 50 43.1166 50C43.3483 50 43.5703 49.904 43.7321 49.7336C43.8942 49.5633 43.9826 49.3332 43.9772 49.0949V46.0377H50V9.10906e-05L13.8533 0ZM15.5746 1.77068H48.2783V33.6449C48.2637 33.6445 48.2491 33.6445 48.2345 33.6449H37.9995C37.9833 33.6445 37.9668 33.6445 37.9507 33.6449V23.0188H37.1204C37.1104 23.018 37.1 23.0176 37.09 23.0172H33.6475C33.6379 23.0176 33.6283 23.018 33.6191 23.0188H15.5745L15.5746 1.77068ZM18.1211 5.31365C17.6539 5.34764 17.2986 5.75948 17.3212 6.24049C17.3435 6.7219 17.7354 7.09658 18.2037 7.08433H28.4388C28.6705 7.08986 28.8941 6.99896 29.06 6.83216C29.2256 6.66577 29.319 6.43732 29.319 6.19899C29.319 5.96066 29.2256 5.7326 29.06 5.56582C28.8941 5.39942 28.6705 5.30851 28.4388 5.31365H18.2037C18.1761 5.31246 18.1488 5.31246 18.1211 5.31365H18.1211ZM35.3553 5.34487C35.127 5.34962 34.91 5.44724 34.7517 5.6164C34.5934 5.78557 34.5069 6.01283 34.5115 6.24761V16.7766C34.49 17.0244 34.5703 17.2698 34.7336 17.4532C34.8965 17.6366 35.127 17.7413 35.3687 17.7413C35.6104 17.7413 35.8409 17.6366 36.0038 17.4532C36.1671 17.2698 36.2474 17.0244 36.2259 16.7766V6.24761C36.2305 6.00809 36.1406 5.77688 35.9765 5.60653C35.8124 5.43658 35.5881 5.34211 35.3552 5.34488L35.3553 5.34487ZM43.9649 5.34487C43.7352 5.34725 43.5158 5.44368 43.3556 5.61324C43.1958 5.7828 43.1082 6.01125 43.1128 6.2476V16.7765C43.1231 17.258 43.5054 17.6425 43.9734 17.6425C44.4413 17.6425 44.8236 17.258 44.834 16.7765V6.2476C44.8382 6.00808 44.7487 5.77726 44.585 5.60731C44.421 5.43735 44.1974 5.3425 43.9649 5.34486V5.34487ZM39.6568 5.35871C39.4286 5.36345 39.2111 5.46107 39.0528 5.63024C38.8949 5.7994 38.8085 6.02667 38.8127 6.26144V16.7833C38.8231 17.2643 39.2054 17.6493 39.6733 17.6493C40.1413 17.6493 40.5236 17.2643 40.5339 16.7833V6.26144C40.5386 6.02074 40.4479 5.78834 40.2823 5.61799C40.1167 5.44764 39.8908 5.35396 39.6568 5.35871ZM10.3887 7.08436H13.8008V15.9326H10.3887V7.08436ZM18.1208 10.6257C17.6452 10.6494 17.2779 11.0648 17.3006 11.5545C17.3232 12.0438 17.7274 12.4217 18.2035 12.3984H28.4385C28.9141 12.3984 29.2999 12.0015 29.2999 11.5122C29.2999 11.0225 28.9141 10.6257 28.4385 10.6257H18.2035C18.1758 10.6245 18.1485 10.6245 18.1208 10.6257H18.1208ZM18.2034 15.9326C17.7274 15.9326 17.3417 16.3294 17.3417 16.8187C17.3417 17.3084 17.7274 17.7052 18.2034 17.7052H28.4385C28.9141 17.7052 29.2999 17.3084 29.2999 16.8187C29.2999 16.3294 28.9141 15.9326 28.4385 15.9326H18.2034ZM34.511 24.7895H36.2254V28.3309H34.511V24.7895ZM48.2771 35.4116V44.2666H37.9496V35.4167C37.9657 35.4163 37.9823 35.4159 37.9984 35.4147H48.2334C48.248 35.4139 48.2626 35.4132 48.2772 35.4116L48.2771 35.4116Z" fill="#4EBD69"/>
</svg>
