<svg width="60" height="25" viewBox="0 0 60 25" fill="none" xmlns="http://www.w3.org/2000/svg">
<path fill-rule="evenodd" clip-rule="evenodd" d="M5.21289 0.000115683C5.58864 0.000115683 6.11499 0.189102 6.77838 0.913492C6.80586 0.943887 7.10489 1.27043 7.59555 1.80622L8.32601 2.60348C8.50871 2.80299 8.70462 3.01692 8.91159 3.24253L10.269 4.72479L11.801 6.39648C12.0126 6.3092 12.2431 6.24023 12.5089 6.211L12.7866 6.1958H20.5268V3.44945H15.0008C15.0008 3.44945 15.0125 1.15818 17.1254 0.88854L17.5465 0.862822H25.877C28.189 0.862822 28.403 3.15409 28.4202 3.42333L28.4216 3.44944H22.8956V6.19579H29.8244C30.8836 6.19579 31.4231 6.41557 32.3609 7.17776C32.9433 7.65043 35.9579 9.96501 35.9579 9.96501C35.9579 9.96501 54.0748 2.81189 54.6713 2.65797C54.8619 2.60965 55.0403 2.58666 55.2108 2.58666C55.6012 2.58666 55.9463 2.71018 56.2899 2.94164C56.692 3.21441 58.8652 5.05405 59.1739 5.31551L59.2103 5.3463L57.6316 7.57951L57.5895 7.54366L57.2951 7.29505C56.6853 6.78109 55.4473 5.74027 55.2975 5.63862C55.203 5.57316 55.0884 5.52951 54.9724 5.52951C54.8725 5.52951 54.7712 5.56146 54.678 5.63862C53.6082 6.52746 40.883 23.0229 40.6427 23.2863C39.6439 24.3824 38.8061 24.9093 37.0561 24.9891L36.5554 25H12.7857C10.8847 25 10.3342 23.3845 10.2692 22.6343L10.2624 22.4878V17.6898L0.83948 7.39905C-0.343435 6.10693 0.0269512 5.31867 0.165404 5.04234C0.309566 4.76295 1.27122 3.39519 2.19195 2.39026C3.1126 1.38652 4.37407 0.335905 4.62063 0.177294C4.72055 0.114947 4.92038 0 5.21193 0L5.21289 0.000115683ZM50.2247 7.10646C46.4203 8.59191 36.246 12.6028 35.6331 12.8444L35.6041 12.8557L34.5957 12.0818C34.4719 11.9859 31.5489 9.74104 30.9495 9.25393C30.4528 8.84984 30.3436 8.79218 30.012 8.784L12.7877 8.78244C12.7213 8.78244 12.677 8.78828 12.6506 8.79413L12.6417 8.81478L12.6331 8.83777V22.3875C12.636 22.3918 12.6371 22.3976 12.6385 22.4019L12.697 22.4113L12.7877 22.4152H36.5574C38.0615 22.4152 38.3559 22.1299 38.9236 21.5088C39.102 21.2879 48.3831 9.39754 50.2257 7.10617L50.2247 7.10646ZM57.6313 12.0693C57.6313 12.0693 57.7644 12.1784 57.8244 12.3923C58.3907 14.3968 60 15.8939 60 17.126C60 18.6129 58.9395 19.8275 57.6312 19.8275C56.3256 19.8275 55.2625 18.6129 55.2625 17.126C55.2625 15.8938 56.8733 14.3968 57.4381 12.3923C57.4991 12.1799 57.6312 12.0693 57.6312 12.0693H57.6313ZM5.24376 2.89491C4.82946 3.2573 4.29781 3.74906 3.86782 4.22015C3.53703 4.58021 3.20159 4.9952 2.91758 5.36653L2.6528 5.71997L10.2635 14.0327V8.70952C10.2635 8.62964 10.2742 8.52638 10.2928 8.4087C9.84779 7.92201 9.41137 7.44545 8.9921 6.98759L7.4298 5.28198C6.35889 4.11295 5.55106 3.23112 5.24375 2.89485L5.24376 2.89491Z" fill="#4EBD69"/>
</svg>
