<svg width="55" height="55" viewBox="0 0 55 55" fill="none" xmlns="http://www.w3.org/2000/svg">
<path d="M55 21.389C55 22.0612 54.4501 22.6111 53.7779 22.6111H50.111C49.4388 22.6111 48.8889 22.0612 48.8889 21.389C48.8889 20.7168 49.4388 20.1669 50.111 20.1669H53.7779C54.4501 20.1669 55 20.7168 55 21.389ZM46.4447 20.1669H45.8334C45.1611 20.1669 44.6113 20.7168 44.6113 21.389C44.6113 22.0612 45.1612 22.6111 45.8334 22.6111H46.4447C47.1169 22.6111 47.6668 22.0612 47.6668 21.389C47.6668 20.7168 47.1169 20.1669 46.4447 20.1669ZM48.8889 17.6612C49.0112 17.6612 49.1331 17.6612 49.2555 17.6003L52.739 16.5005C53.4113 16.3172 53.7169 15.6449 53.5336 14.9727C53.3503 14.3004 52.6781 13.9948 52.0058 14.1781L48.5223 15.2779C47.85 15.4612 47.5444 16.1334 47.7277 16.8057C47.8501 17.2946 48.339 17.6612 48.8889 17.6612L48.8889 17.6612ZM44.7944 18.8833C44.9168 18.8833 45.0387 18.8833 45.161 18.8224L45.7723 18.6391C46.4446 18.4558 46.7502 17.7835 46.5669 17.1113C46.3836 16.439 45.6504 16.1334 45.0391 16.3167L44.4278 16.5C43.7556 16.6833 43.45 17.3555 43.6333 18.0278C43.7556 18.5777 44.2446 18.8833 44.7945 18.8833L44.7944 18.8833ZM52.739 26.278L49.2554 25.1782C48.5832 24.9949 47.911 25.3615 47.7277 25.9728C47.5444 26.6451 47.911 27.3173 48.5222 27.5006L52.0058 28.6004C52.1281 28.6613 52.2501 28.6613 52.3724 28.6613C52.9223 28.6613 53.3503 28.2947 53.5336 27.8058C53.7165 27.1945 53.4113 26.4613 52.739 26.278H52.739ZM45.711 24.1389L45.0997 23.9556C44.4275 23.7723 43.7553 24.1389 43.5719 24.7502C43.3886 25.4224 43.7552 26.0946 44.3665 26.278L44.9778 26.4613C45.1001 26.5222 45.2221 26.5222 45.3444 26.5222C45.8943 26.5222 46.3223 26.1556 46.5056 25.6667C46.7499 24.9944 46.3833 24.3222 45.711 24.1389L45.711 24.1389ZM45.8333 53.7779C45.8333 54.4501 45.2834 55 44.6112 55H19.8612C13.9334 55 9.04445 50.4167 8.61678 44.6112H6.11111C5.68313 44.6112 5.31654 44.4279 5.13324 44.1222C4.88898 43.8166 4.82759 43.389 5.01089 43.0225L10.5107 27.5613L6.11111 27.5609C5.43887 27.5609 4.889 27.011 4.889 26.3388V25.1166H1.22211C0.549869 25.1166 0 24.5667 0 23.8945V19.0055C0 18.3333 0.549902 17.7834 1.22211 17.7834H4.889V16.5613C4.889 15.889 5.4389 15.3392 6.11111 15.3392H14.6665V13.3225C12.5888 12.7726 10.9996 10.8782 10.9996 8.6168L11 1.22212C11 0.549871 11.5499 0 12.2221 0H19.5553C20.2276 0 20.7774 0.549903 20.7774 1.22212V8.55536C20.7774 10.8164 19.1887 12.7107 17.1106 13.261L17.111 15.2777H37.8888C38.561 15.2777 39.1109 15.8276 39.1109 16.4998V20.1667H42.1664C42.8387 20.1667 43.3886 20.7166 43.3886 21.3888C43.3886 22.0611 42.8387 22.611 42.1664 22.611H39.1109V26.2779C39.1109 26.9501 38.561 27.5 37.8888 27.5H27.7442L25.6051 33.9777C25.4218 34.4666 24.9938 34.8332 24.4439 34.8332H17.7833L14.6054 43.8166C14.4221 44.3055 13.9941 44.6111 13.4442 44.6111H11.0609C11.5498 49.0722 15.2777 52.5557 19.861 52.5557H44.611C45.2832 52.5557 45.8331 53.1056 45.8331 53.7778L45.8333 53.7779ZM13.4444 2.44439V5.49995H18.3334V2.44439H13.4444ZM15.8891 11.0002C17.2336 11.0002 18.3333 9.9004 18.3333 8.55595V7.94467H13.4443V8.55595C13.4443 9.89997 14.5446 11.0002 15.889 11.0002H15.8891ZM25.1777 27.5002H20.411L18.7609 32.3893H23.5276L25.1777 27.5002ZM36.6666 17.7222H32.9997V25.0555H36.6666V17.7222ZM4.88878 22.6112V20.167H2.44412V22.6112H4.88878ZM7.33301 25.0559H30.5552V17.7222H7.33301V25.0559ZM7.82195 42.1671H12.5886L17.8442 27.5004H13.0775L7.82195 42.1671Z" fill="#4EBD69"/>
</svg>
