<svg width="60" height="60" viewBox="0 0 60 60" fill="none" xmlns="http://www.w3.org/2000/svg">
<path d="M0.71039 60H59.2915C59.6826 60 60 59.6789 60 59.2833C60 58.8877 59.6826 58.5667 59.2915 58.5667H54.1149V54.5311C54.1149 54.1355 53.7975 53.8144 53.4064 53.8144L35.9458 53.8139L32.019 52.3245L36.1955 50.7403C36.4716 50.6354 36.6548 50.3677 36.6548 50.0692C36.6548 49.7706 36.4711 49.5029 36.1955 49.398L32.0185 47.8138L36.0664 46.2784C36.3424 46.1735 36.5257 45.9058 36.5257 45.6072C36.5257 45.3082 36.342 45.0405 36.0655 44.9361L32.0199 43.4029L36.1946 41.8204C36.4716 41.716 36.6548 41.4478 36.6548 41.1493C36.6548 40.8503 36.4711 40.5826 36.1946 40.4782L32.0212 38.8976L36.0654 37.3658C36.3423 37.2614 36.5256 36.9936 36.5256 36.6946C36.5256 36.3956 36.3419 36.1279 36.0654 36.0231L32.0221 34.4922L36.0749 32.9577H53.4051C53.7962 32.9577 54.1136 32.6366 54.1136 32.241V27.4884C54.1136 27.0928 53.7962 26.7717 53.4051 26.7717H52.5779C53.6275 25.9879 54.3528 24.8043 54.5466 23.4399H58.8372C59.2283 23.4399 59.5457 23.1189 59.5457 22.7233L59.5462 15.7079C59.5462 14.6241 58.7822 13.7041 57.7489 13.5233L45.1919 10.9833L39.7438 2.38274C38.7979 0.890965 37.189 0 35.4367 0H18.1566C16.4044 0 14.795 0.891013 13.8496 2.38274L8.44828 10.9101H5.57551C2.70228 10.9101 0.454454 13.2612 0.454454 16.0805V22.7228C0.454454 23.1184 0.771883 23.4395 1.16297 23.4395H5.46502C5.65875 24.8038 6.38409 25.9879 7.43367 26.7712L6.59418 26.7717C6.20308 26.7717 5.88567 27.0928 5.88567 27.4883V32.241C5.88567 32.6366 6.20309 32.9577 6.59418 32.9577H23.9244L27.9776 34.4922L23.9347 36.023C23.6578 36.1279 23.4745 36.3957 23.4745 36.6946C23.4745 36.9936 23.6582 37.2614 23.9347 37.3658L27.9785 38.8976L23.8046 40.4786C23.5276 40.583 23.3444 40.8508 23.3444 41.1497C23.3444 41.4483 23.5281 41.7165 23.8046 41.8209L27.9797 43.4037L23.9346 44.9369C23.6577 45.0413 23.4744 45.309 23.4744 45.608C23.4744 45.9066 23.6581 46.1743 23.9337 46.2792L27.9812 47.8146L23.8037 49.3988C23.5276 49.5037 23.3444 49.7714 23.3444 50.07C23.3444 50.3685 23.5281 50.6362 23.8037 50.7411L27.9807 52.3253L24.0542 53.8147L6.59362 53.8138C6.20253 53.8138 5.88511 54.1349 5.88511 54.5305V58.5661H0.708517C0.317418 58.5661 0 58.8872 0 59.2828C0 59.6788 0.317429 59.9999 0.708517 59.9999L0.71039 60ZM49.6357 26.3327C47.6738 26.3327 46.078 24.7217 46.0708 22.7391C46.0708 22.7332 46.074 22.7286 46.074 22.7226C46.074 20.6825 47.773 19.1295 49.6357 19.1295C51.5898 19.1295 53.1984 20.7294 53.1984 22.7226C53.1984 22.7272 53.2011 22.7313 53.2011 22.7359C53.1952 24.7204 51.5985 26.3326 49.6357 26.3326L49.6357 26.3327ZM38.5512 3.15651L43.4627 10.9098H26.143V1.43381H35.4384C36.7045 1.43381 37.8687 2.07781 38.5517 3.15651H38.5512ZM15.045 3.15651C15.7276 2.07735 16.8922 1.43381 18.1583 1.43381H24.725V10.9098H10.133L15.045 3.15651ZM2.02581 15.0867H5.32153C5.69717 15.0867 6.00232 15.3958 6.00232 15.7748C6.00232 16.1543 5.69672 16.463 5.32153 16.463L1.87307 16.4635V16.0807C1.87307 15.5973 1.97676 15.2656 2.02587 15.0867L2.02581 15.0867ZM1.87301 17.8968H5.32101C6.47793 17.8968 7.41924 16.9446 7.41924 15.7747C7.41924 14.605 6.47788 13.6527 5.32101 13.6527H2.76292C3.45144 12.8362 4.4687 12.3436 5.57655 12.3436L44.6888 12.3441L57.4891 14.9324C57.8543 14.9968 58.1294 15.3298 58.1294 15.708V22.0062H54.5641C54.2317 19.685 52.1734 17.6956 49.6349 17.6956C47.1541 17.6956 45.0409 19.6266 44.7066 22.0062H15.3154C14.9834 19.6689 12.8892 17.6956 10.3771 17.6956C7.90773 17.6956 5.78669 19.6111 5.4479 22.0062H1.87348L1.87301 17.8968ZM6.81316 22.7304C6.81316 22.7277 6.81452 22.7258 6.81452 22.7231C6.81452 20.7497 8.40527 19.13 10.3789 19.13C12.3454 19.13 13.9443 20.7432 13.9443 22.7262C13.9443 24.7153 12.3454 26.3331 10.3789 26.3331C8.41389 26.3331 6.81499 24.7176 6.81312 22.7304L6.81316 22.7304ZM15.2899 23.4397H44.723C44.9168 24.8041 45.6421 25.9882 46.6917 26.7715L13.3224 26.772C14.3715 25.9881 15.0969 24.8046 15.2901 23.4397L15.2899 23.4397ZM7.30421 28.2053H52.6973V31.5243H7.30421V28.2053ZM27.9698 32.958H32.0323L30.0013 33.7271L27.9698 32.958ZM26.2058 36.6949L30.0013 35.2579L33.7972 36.6949L30.0013 38.1324L26.2058 36.6949ZM26.0758 41.15L30.0013 39.6628L33.9269 41.15L30.0013 42.6381L26.0758 41.15ZM26.204 45.6082L30.0013 44.1689L33.799 45.6082L30.0013 47.0484L26.204 45.6082ZM26.0731 50.0693L30.0013 48.5794L33.929 50.0693L30.0013 51.5592L26.0731 50.0693ZM30.0008 53.0901L31.909 53.8136H28.0932L30.0008 53.0901ZM7.30368 55.2474H52.6968V58.5663H7.30368V55.2474Z" fill="#4EBD69"/>
</svg>
