<svg width="45" height="45" viewBox="0 0 45 45" fill="none" xmlns="http://www.w3.org/2000/svg">
<path d="M17.5398 1.74947e-05C16.9257 0.0186817 16.37 0.575202 16.2999 1.08336L15.7961 5.54908C14.0079 6.23243 12.364 7.18171 10.8945 8.34274L6.68992 6.51834C6.13592 6.28335 5.41971 6.51707 5.12045 7.0316L0.160375 15.4688C-0.1376 15.9774 0.0120399 16.6934 0.489924 17.0459L4.17115 19.7063C4.02973 20.6238 3.89999 21.5528 3.89999 22.5C3.89999 23.4455 4.03016 24.3583 4.17115 25.2745L0.489924 27.935C0.00252965 28.2891 -0.147974 29.0191 0.160375 29.5311L5.12045 37.9683C5.42578 38.4761 6.14022 38.7009 6.68992 38.4625L10.875 36.6572C12.3472 37.8216 14.0035 38.7467 15.7961 39.4318L16.2999 43.9166C16.3665 44.5079 16.9335 45.0034 17.5398 44.9999H27.46C28.0663 45.0059 28.6338 44.5079 28.6999 43.9166L29.2037 39.4318C30.9963 38.7467 32.6531 37.8216 34.1248 36.6572L38.3099 38.4625C38.8595 38.7009 39.5736 38.4761 39.8794 37.9683L44.8394 29.5311C45.1482 29.0191 44.9973 28.2891 44.5099 27.935L40.8286 25.2745C40.9696 24.3583 41.0998 23.4455 41.0998 22.5C41.0998 21.5528 40.9701 20.6243 40.8286 19.7063L44.5099 17.0459C44.9873 16.693 45.137 15.9774 44.8394 15.4688L39.8794 7.0316C39.5801 6.5175 38.8639 6.28336 38.3099 6.51834L34.1053 8.34274C32.6358 7.18215 30.9919 6.23243 29.2037 5.54908L28.6999 1.08336C28.6333 0.492066 28.0663 -0.00339219 27.46 1.74947e-05H17.5398ZM18.6633 2.43219H26.3359L26.8008 6.49873C26.8592 6.95599 27.206 7.36533 27.6532 7.50572C29.7014 8.18313 31.5675 9.26812 33.1556 10.6412C33.5102 10.942 34.0452 11.0192 34.4728 10.8313L38.2899 9.17777L42.1454 15.7338L38.7938 18.1474C38.4158 18.4189 38.219 18.9126 38.3094 19.3635C38.5135 20.3646 38.6195 21.425 38.6195 22.499C38.6195 23.5731 38.5135 24.6143 38.3094 25.6154C38.219 26.0663 38.4158 26.5605 38.7938 26.8315L42.1454 29.2637L38.3094 35.8006L34.4734 34.1471C34.0422 33.9643 33.5064 34.0496 33.1561 34.3562C31.568 35.7293 29.702 36.7953 27.6538 37.4726C27.201 37.6156 26.8528 38.0351 26.8014 38.4987L26.3365 42.5653H18.6639L18.199 38.4987C18.1475 38.0351 17.7994 37.6156 17.3466 37.4726C15.2984 36.7952 13.4323 35.7292 11.8442 34.3562C11.4939 34.0496 10.9581 33.9643 10.527 34.1471L6.69096 35.8006L2.85496 29.2637L6.20659 26.8315C6.58458 26.56 6.78135 26.0663 6.69096 25.6154C6.48683 24.6143 6.38088 23.573 6.38088 22.499C6.38088 21.4251 6.48683 20.3646 6.69096 19.3635C6.78135 18.9126 6.58457 18.4189 6.20659 18.1474L2.85496 15.7338L6.71045 9.17777L10.5275 10.8313C10.9552 11.0192 11.4906 10.942 11.8448 10.6412C13.4329 9.26812 15.2989 8.1831 17.3471 7.50572C17.7943 7.36532 18.1412 6.95557 18.1995 6.49873L18.6645 2.43219H18.6633ZM22.4993 10.9453C16.0083 10.9453 10.7194 16.1326 10.7194 22.4992C10.7194 28.8658 16.0082 34.053 22.4993 34.053C28.9905 34.053 34.2793 28.8658 34.2793 22.4992C34.2793 16.1323 28.9905 10.9453 22.4993 10.9453V10.9453ZM22.4993 13.3775C27.6501 13.3775 31.7993 17.4471 31.7993 22.499C31.7993 27.5508 27.6501 31.6204 22.4993 31.6204C17.3486 31.6204 13.1994 27.5508 13.1994 22.499C13.1994 17.4471 17.3486 13.3775 22.4993 13.3775V13.3775Z" fill="#4EBD69"/>
</svg>
