<svg width="66" height="75" viewBox="0 0 66 75" fill="none" xmlns="http://www.w3.org/2000/svg">
<path d="M56.1 17.4997H25.3006C24.6933 17.4997 24.2001 18.0601 24.2001 18.7502V44.832C20.8091 44.6198 18.5323 44.1984 16.8767 43.5136C14.5579 42.556 13.4593 41.0728 13.2423 38.5185C14.5008 37.9895 15.4006 36.6125 15.4006 35.0012L15.401 22.5009C16.0083 22.5009 16.5007 21.9405 16.5007 21.2503V18.7509C16.5007 18.0607 16.0087 17.5003 15.401 17.5003V16.2506C15.401 15.5604 14.9078 15.0009 14.3005 15.0009H13.2003V9.3252L20.5167 2.19977C20.9775 1.75028 21.0309 0.960989 20.6361 0.436525C20.2405 -0.0870501 19.5459 -0.147736 19.0844 0.300925L11.3847 7.80092C11.1412 8.03907 11.0001 8.38518 11.0001 8.75056V15.0008H9.90077C9.29344 15.0008 8.80103 15.56 8.80103 16.2506V35.0016C8.80103 36.646 9.73799 38.0468 11.0366 38.5503C11.2911 42.2032 12.9249 44.5415 16.1244 45.8636C18.1813 46.7133 20.8891 47.1397 24.2001 47.341V57.5016C24.2001 58.1918 24.6933 58.7505 25.3006 58.7505H26.4004C26.4004 59.4406 26.8924 60.001 27.5001 60.001C28.1075 60.001 28.6006 59.4406 28.6006 58.7505H52.8C52.8 59.4406 53.2932 60.001 53.899 60.001C54.5078 60.001 55.001 59.4406 55.001 58.7505H56.1C56.7073 58.7505 57.199 58.1922 57.199 57.5016L57.1986 18.7513C57.1986 18.0607 56.7073 17.5007 56.1 17.5007L56.1 17.4997ZM11.0003 35.0004H13.2005C13.2005 35.6888 12.7074 36.2492 12.1008 36.2492C11.4942 36.2492 11.0003 35.6888 11.0003 35.0004V35.0004ZM13.2002 17.4997V32.4997L11.0003 32.4992V17.4992L13.2002 17.4997ZM55.0008 19.9999V32.4992L26.4002 32.4988V19.9995L55.0008 19.9999ZM26.4002 56.2496V47.4384C27.1681 47.4639 27.964 47.4785 28.7864 47.4877C29.2376 48.9489 30.4622 50.0001 31.9004 50.0001C33.7195 50.0001 35.2012 48.3172 35.2012 46.2506C35.2012 44.1814 33.7195 42.5006 31.9004 42.5006C30.4703 42.5006 29.2498 43.5389 28.793 44.9892C27.947 44.9783 27.1512 44.9599 26.4002 44.9343V35.001H55.0008V56.2496L26.4002 56.2488V56.2496ZM31.3502 45.1678C31.513 45.0615 31.6997 44.9991 31.9004 44.9991C32.507 44.9991 33.0002 45.5595 33.0002 46.2497C33.0002 46.9382 32.507 47.4981 31.9004 47.4981C31.6997 47.4981 31.5129 47.4358 31.3502 47.3295C31.6791 47.1135 31.9004 46.7109 31.9004 46.2492C31.9004 45.7868 31.6787 45.3837 31.3502 45.1677V45.1678Z" fill="#4EBD69"/>
<path d="M51.7015 42.5004H39.6009C38.9936 42.5004 38.502 43.0587 38.502 43.7492C38.502 44.4394 38.9933 44.9998 39.6009 44.9998H51.7015C52.3074 44.9998 52.8005 44.4394 52.8005 43.7492C52.8005 43.0591 52.3074 42.5004 51.7015 42.5004Z" fill="#4EBD69"/>
<path d="M51.7015 37.5H39.6009C38.9936 37.5 38.502 38.0604 38.502 38.7506C38.502 39.4407 38.9933 39.9994 39.6009 39.9994H51.7015C52.3074 39.9994 52.8005 39.4411 52.8005 38.7506C52.8005 38.0604 52.3074 37.5 51.7015 37.5Z" fill="#4EBD69"/>
<path d="M31.9006 30C33.7196 30 35.2013 28.3171 35.2013 26.25C35.2013 24.182 33.7196 22.5 31.9006 22.5C30.0808 22.5 28.6006 24.182 28.6006 26.25C28.6006 28.3176 30.0808 30 31.9006 30ZM31.9006 24.9994C32.5072 24.9994 33.0003 25.5607 33.0003 26.25C33.0003 26.9385 32.5072 27.4997 31.9006 27.4997C31.294 27.4997 30.8001 26.9385 30.8001 26.25C30.8001 25.5607 31.294 24.9994 31.9006 24.9994Z" fill="#4EBD69"/>
<path d="M40.6993 30C42.5202 30 43.9993 28.3171 43.9993 26.25C43.9993 24.182 42.5202 22.5 40.6993 22.5C38.8818 22.5 37.3993 24.182 37.3993 26.25C37.3993 28.3176 38.8818 30 40.6993 30ZM40.6993 24.9994C41.3066 24.9994 41.8016 25.5607 41.8016 26.25C41.8016 26.9385 41.307 27.4997 40.6993 27.4997C40.0934 27.4997 39.6003 26.9385 39.6003 26.25C39.6003 25.5607 40.0935 24.9994 40.6993 24.9994Z" fill="#4EBD69"/>
<path d="M49.5 30C51.3208 30 52.8 28.3171 52.8 26.25C52.8 24.182 51.3208 22.5 49.5 22.5C47.6809 22.5 46.2 24.182 46.2 26.25C46.2 28.3176 47.6805 30 49.5 30ZM49.5 24.9994C50.1059 24.9994 50.599 25.5607 50.599 26.25C50.599 26.9385 50.1058 27.4997 49.5 27.4997C48.8941 27.4997 48.401 26.9385 48.401 26.25C48.401 25.5607 48.8941 24.9994 49.5 24.9994Z" fill="#4EBD69"/>
<path d="M43.9994 50.0004H42.9004V48.7498C42.9004 48.0597 42.4072 47.4993 41.8014 47.4993C41.1922 47.4993 40.6991 48.0597 40.6991 48.7498V50.0004H39.6001C38.9928 50.0004 38.5011 50.5587 38.5011 51.2493C38.5011 51.9394 38.9924 52.4998 39.6001 52.4998H40.6991V53.7504C40.6991 54.4406 41.1922 54.9993 41.8014 54.9993C42.4072 54.9993 42.9004 54.441 42.9004 53.7504V52.4998H43.9994C44.6085 52.4998 45.1017 51.9394 45.1017 51.2493C45.1013 50.5587 44.6081 50.0004 43.9994 50.0004V50.0004Z" fill="#4EBD69"/>
<path d="M51.7012 50.0001H47.2989C46.6931 50.0001 46.2 50.5584 46.2 51.2489C46.2 51.9391 46.6931 52.4995 47.2989 52.4995H51.7012C52.3071 52.4995 52.8002 51.9391 52.8002 51.2489C52.8002 50.5583 52.3071 50.0001 51.7012 50.0001Z" fill="#4EBD69"/>
</svg>
