<svg width="24" height="24" viewBox="0 0 24 24" fill="none" xmlns="http://www.w3.org/2000/svg">
<path d="M23.9648 18.14L22.8748 22.8647C22.7217 23.5327 22.1346 24 21.4469 24C9.61966 23.9991 0 14.3808 0 2.55483C0 1.86768 0.467341 1.2799 1.13542 1.12756L5.86087 0.037774C6.54906 -0.121687 7.25225 0.235483 7.53821 0.887106L9.71904 5.97279C9.97398 6.57182 9.80202 7.26975 9.29807 7.68129L6.77408 9.7076C8.36704 12.9521 11.0054 15.5901 14.2513 17.1838L16.3178 14.662C16.7251 14.1567 17.4284 13.9819 18.0275 14.2414L23.1139 16.4214C23.7257 16.7432 24.1242 17.4556 23.9648 18.14Z" fill="#4EBD69"/>
</svg>
