<svg width="20" height="37" viewBox="0 0 20 37" fill="none" xmlns="http://www.w3.org/2000/svg">
<g clip-path="url(#clip0_177_53)">
<path fill-rule="evenodd" clip-rule="evenodd" d="M0.691204 34.5816C1.58211 35.4636 3.01848 35.4636 3.90939 34.5816L19.0185 19.6236C19.7276 18.9216 19.7276 17.7876 19.0185 17.0856L3.90939 2.12763C3.01848 1.24563 1.58211 1.24563 0.691204 2.12763C-0.199705 3.00963 -0.199705 4.43163 0.691204 5.31363L13.8548 18.3636L0.673026 31.4136C-0.199701 32.2776 -0.199705 33.7176 0.691204 34.5816Z" fill="#6C6C6C"/>
<path fill-rule="evenodd" clip-rule="evenodd" d="M0.691202 34.5816C1.58211 35.4636 3.01848 35.4636 3.90938 34.5816L19.0185 19.6236C19.7276 18.9216 19.7276 17.7876 19.0185 17.0856L3.90938 2.12763C3.01848 1.24563 1.58211 1.24563 0.691202 2.12763C-0.199707 3.00963 -0.199707 4.43163 0.691202 5.31363L13.8548 18.3636L0.673023 31.4136C-0.199704 32.2776 -0.199707 33.7176 0.691202 34.5816Z" fill="white"/>
</g>
<defs>
<clipPath id="clip0_177_53">
<rect width="20" height="36" fill="white" transform="translate(20 36.3636) rotate(-180)"/>
</clipPath>
</defs>
</svg>
