<svg width="20" height="36" viewBox="0 0 20 36" fill="none" xmlns="http://www.w3.org/2000/svg">
<g clip-path="url(#clip0_177_31)">
<path fill-rule="evenodd" clip-rule="evenodd" d="M19.3088 1.782C18.4179 0.899999 16.9815 0.899999 16.0906 1.782L0.981525 16.74C0.272434 17.442 0.272434 18.576 0.981525 19.278L16.0906 34.236C16.9815 35.118 18.4179 35.118 19.3088 34.236C20.1997 33.354 20.1997 31.932 19.3088 31.05L6.14516 18L19.327 4.95C20.1997 4.086 20.1997 2.646 19.3088 1.782Z" fill="white"/>
<path fill-rule="evenodd" clip-rule="evenodd" d="M19.3088 1.782C18.4179 0.899999 16.9815 0.899999 16.0906 1.782L0.981525 16.74C0.272434 17.442 0.272434 18.576 0.981525 19.278L16.0906 34.236C16.9815 35.118 18.4179 35.118 19.3088 34.236C20.1997 33.354 20.1997 31.932 19.3088 31.05L6.14516 18L19.327 4.95C20.1997 4.086 20.1997 2.646 19.3088 1.782Z" fill="white"/>
</g>
<defs>
<clipPath id="clip0_177_31">
<rect width="20" height="36" fill="white"/>
</clipPath>
</defs>
</svg>
