<?xml version="1.0" standalone="no"?>
<!DOCTYPE svg PUBLIC "-//W3C//DTD SVG 20010904//EN"
 "http://www.w3.org/TR/2001/REC-SVG-20010904/DTD/svg10.dtd">
<svg version="1.0" xmlns="http://www.w3.org/2000/svg"
 width="1466.000000pt" height="1466.000000pt" viewBox="0 0 1466.000000 1466.000000"
 preserveAspectRatio="xMidYMid meet">
<metadata>
Created by potrace 1.14, written by Peter Selinger 2001-2017
</metadata>
<g transform="translate(0.000000,1466.000000) scale(0.100000,-0.100000)"
fill="#000000" stroke="none">
<path d="M7247 12534 c-1 -1 -76 -5 -167 -9 -91 -3 -185 -8 -210 -10 -25 -2
-85 -6 -135 -9 -49 -4 -103 -9 -120 -11 -16 -3 -66 -7 -110 -10 -44 -3 -87 -8
-95 -10 -8 -2 -46 -7 -85 -11 -38 -4 -77 -8 -85 -9 -8 -1 -44 -5 -80 -10 -36
-4 -74 -9 -85 -11 -11 -2 -40 -6 -65 -10 -25 -3 -70 -9 -100 -14 -30 -5 -73
-12 -95 -16 -51 -8 -191 -31 -230 -39 -16 -3 -52 -10 -80 -15 -27 -5 -63 -12
-80 -15 -58 -9 -441 -95 -580 -129 -781 -191 -1558 -452 -1979 -662 -121 -61
-206 -120 -206 -144 0 -18 107 -42 240 -55 139 -13 472 -20 565 -11 17 2 68 6
115 10 47 4 110 11 140 16 30 5 73 11 95 15 22 3 63 10 90 15 28 5 66 12 85
15 116 20 388 86 580 142 47 14 90 26 95 27 6 1 42 12 80 24 412 127 824 248
1010 297 55 14 107 28 115 30 12 4 145 37 200 50 73 18 377 86 402 90 18 4 52
10 76 16 23 5 59 12 80 14 20 3 57 10 82 15 25 5 81 14 125 21 44 6 87 12 95
14 8 1 42 6 75 10 32 4 68 9 80 11 11 2 49 7 85 10 36 3 83 7 105 10 209 21
628 31 835 19 110 -6 250 -16 290 -20 19 -2 67 -6 107 -9 39 -3 77 -8 85 -10
7 -3 42 -7 78 -11 36 -3 74 -8 85 -11 11 -3 36 -6 55 -9 44 -4 101 -13 165
-25 28 -6 66 -12 85 -14 19 -2 42 -7 50 -10 8 -3 33 -8 55 -11 22 -3 117 -22
210 -41 181 -38 177 -38 215 -47 14 -4 120 -29 235 -57 116 -28 268 -67 339
-86 72 -20 137 -37 145 -39 9 -2 99 -27 201 -55 424 -120 625 -174 755 -206 6
-1 55 -13 110 -27 125 -32 551 -126 690 -153 11 -2 43 -8 70 -14 75 -16 95
-19 155 -29 30 -6 105 -19 165 -30 61 -11 124 -22 140 -25 204 -31 221 -33
320 -41 67 -4 63 3 -10 20 -11 2 -65 16 -120 31 -55 14 -107 28 -115 30 -19 4
-271 71 -495 130 -93 25 -179 47 -190 50 -39 7 -829 225 -890 244 -16 6 -93
28 -170 51 -213 61 -365 110 -785 249 -212 70 -446 147 -520 170 -74 23 -153
48 -175 55 -35 11 -93 28 -145 41 -8 2 -94 24 -190 50 -199 52 -521 117 -682
139 -187 24 -380 42 -551 51 -111 6 -625 12 -630 8z"/>
<path d="M9050 11836 c0 -5 109 -42 150 -51 8 -2 80 -20 160 -40 80 -20 152
-39 160 -40 70 -16 344 -104 460 -148 172 -65 297 -139 326 -193 25 -46 13
-77 -43 -111 -27 -16 -59 -33 -73 -37 -82 -23 -138 -38 -160 -42 -216 -40
-250 -45 -395 -59 -33 -3 -73 -8 -90 -10 -32 -4 -147 -12 -280 -20 -273 -16
-536 -20 -1235 -20 -823 1 -1243 8 -1765 30 -93 4 -199 9 -235 10 -119 5 -304
16 -350 20 -25 3 -90 7 -145 10 -55 3 -116 8 -135 10 -19 2 -71 7 -115 10 -44
3 -91 8 -105 10 -23 4 -48 6 -227 20 -38 3 -84 8 -103 10 -19 2 -73 6 -120 10
l-85 6 48 -20 c41 -17 311 -69 441 -85 21 -3 46 -7 55 -10 9 -3 39 -7 66 -11
51 -6 70 -9 165 -25 30 -5 71 -11 90 -14 119 -17 401 -57 435 -62 22 -3 54 -7
70 -9 33 -5 177 -23 240 -31 22 -2 56 -7 75 -9 41 -6 99 -12 195 -21 39 -3 78
-8 88 -10 21 -4 98 -11 207 -19 41 -3 89 -8 105 -10 17 -2 66 -7 110 -10 44
-3 103 -7 130 -10 47 -4 106 -8 325 -21 442 -26 1150 -35 1550 -20 323 11 477
20 710 41 30 3 87 7 125 10 39 3 84 7 100 10 17 2 57 7 90 10 50 5 152 20 355
50 206 31 431 100 518 159 246 166 -100 371 -948 561 -8 2 -36 8 -63 14 -26 6
-64 14 -85 17 -20 3 -40 8 -43 10 -4 2 -40 11 -80 20 -41 8 -83 17 -94 20 -11
2 -33 7 -49 10 -16 2 -32 7 -35 9 -4 2 -27 6 -51 10 -25 3 -58 10 -75 15 -16
5 -46 12 -65 15 -19 3 -46 8 -60 10 -63 13 -77 15 -115 20 -22 3 -59 8 -82 11
-24 3 -43 3 -43 0z"/>
<path d="M2478 11065 c-1 -2 -59 -6 -128 -9 -69 -4 -147 -9 -175 -11 -27 -2
-81 -7 -120 -10 -38 -3 -81 -8 -95 -10 -14 -2 -56 -6 -95 -10 -82 -7 -82 -7
-291 -39 -172 -27 -353 -64 -474 -97 -78 -22 -300 -93 -335 -108 -26 -11 -52
-21 -165 -67 -120 -49 -317 -167 -397 -238 -117 -105 -203 -222 -203 -276 0
-34 148 -86 260 -93 105 -6 200 24 430 138 224 112 382 171 770 290 25 7 128
34 230 59 167 40 233 54 325 71 17 3 68 12 115 20 46 9 100 17 120 20 19 3 46
7 60 10 14 3 48 7 75 10 28 3 57 7 65 10 8 2 46 6 83 10 37 3 76 8 85 10 9 1
55 6 102 9 47 4 101 9 120 11 33 4 93 9 240 19 356 26 1186 26 1590 1 36 -2
119 -7 185 -10 66 -4 136 -8 155 -10 19 -2 89 -6 155 -10 66 -4 127 -9 135
-10 9 -2 60 -6 115 -10 55 -4 116 -9 135 -10 19 -2 69 -6 110 -10 41 -3 93 -8
115 -10 22 -2 67 -7 100 -10 33 -3 78 -8 100 -10 22 -2 72 -7 110 -10 39 -4
81 -8 95 -10 14 -2 54 -6 90 -10 36 -3 81 -8 100 -10 97 -12 146 -18 160 -17
8 0 47 -4 85 -9 95 -11 149 -17 220 -24 61 -6 120 -13 165 -20 14 -2 57 -6 95
-10 39 -3 81 -8 95 -10 14 -2 52 -6 85 -10 33 -3 101 -10 150 -15 138 -15 176
-19 230 -25 28 -3 68 -7 90 -10 22 -2 67 -7 100 -10 33 -3 78 -8 100 -10 124
-13 239 -23 320 -30 33 -3 87 -7 120 -10 410 -33 559 -39 985 -39 348 0 631 7
810 19 36 3 119 7 185 10 66 3 149 8 185 10 36 3 110 7 165 10 55 3 132 7 170
10 110 7 242 14 340 20 50 3 126 7 170 10 44 3 123 7 175 10 200 12 397 27
520 41 60 6 112 11 190 19 36 3 76 8 90 10 14 2 61 7 105 11 44 3 94 8 110 9
261 26 779 26 936 0 244 -40 353 -66 495 -116 229 -80 484 -240 608 -380 l38
-44 -7 35 c-12 60 -93 212 -163 305 -165 222 -362 364 -627 454 -86 29 -256
67 -340 77 -22 3 -71 9 -110 13 -67 8 -508 6 -550 -3 -11 -2 -69 -7 -130 -11
-60 -4 -123 -8 -140 -10 -16 -2 -59 -6 -95 -10 -84 -7 -156 -15 -200 -20 -19
-2 -60 -7 -90 -10 -30 -3 -71 -8 -90 -10 -19 -2 -80 -9 -135 -15 -55 -6 -111
-13 -125 -15 -73 -10 -110 -15 -160 -20 -30 -4 -66 -8 -80 -10 -14 -2 -65 -9
-115 -15 -100 -12 -124 -15 -240 -30 -44 -5 -100 -12 -125 -15 -25 -3 -81 -10
-125 -16 -100 -12 -137 -17 -200 -24 -27 -2 -70 -7 -95 -10 -25 -3 -65 -8 -90
-10 -25 -3 -63 -7 -85 -10 -22 -3 -60 -7 -85 -10 -25 -2 -67 -7 -95 -10 -27
-3 -119 -12 -205 -20 -85 -8 -173 -17 -195 -20 -22 -2 -76 -7 -120 -10 -44 -4
-96 -8 -115 -10 -19 -2 -80 -6 -135 -10 -55 -3 -120 -8 -145 -10 -263 -23
-981 -23 -1280 0 -25 2 -93 6 -152 10 -59 3 -115 7 -125 9 -10 2 -61 7 -113
11 -52 4 -108 8 -125 10 -16 2 -59 6 -95 10 -36 3 -76 7 -90 10 -14 2 -52 7
-85 10 -66 7 -525 63 -565 70 -14 2 -46 7 -72 10 -26 3 -80 10 -120 15 -40 6
-91 13 -113 15 -22 3 -51 8 -65 10 -14 3 -77 12 -140 20 -63 8 -126 17 -140
19 -14 3 -63 9 -110 15 -47 6 -96 13 -110 15 -14 3 -68 10 -120 16 -52 6 -106
13 -120 15 -14 2 -47 7 -75 10 -27 3 -66 8 -85 11 -19 3 -53 7 -75 10 -22 2
-56 6 -75 9 -46 6 -103 12 -165 19 -101 12 -131 15 -165 20 -19 2 -66 7 -105
11 -66 6 -86 8 -180 20 -37 4 -70 8 -220 20 -33 3 -78 7 -100 9 -22 3 -76 7
-120 11 -44 3 -98 8 -120 10 -22 3 -85 7 -140 11 -55 3 -116 7 -135 9 -19 2
-93 6 -165 10 -71 4 -159 9 -195 12 -76 5 -1107 13 -1112 8z"/>
<path d="M914 9722 c-15 -26 -99 -164 -187 -307 -220 -358 -336 -551 -347
-580 l-9 -24 350 -3 c193 -2 357 0 364 5 23 13 495 773 495 797 0 6 3 10 8 10
4 0 12 10 17 23 6 12 24 43 39 70 l28 47 -49 1 c-26 0 -191 2 -365 4 l-317 4
-27 -47z"/>
<path d="M1937 9663 c-36 -54 -101 -156 -146 -228 -44 -71 -84 -134 -88 -140
-13 -15 -258 -426 -276 -462 -13 -23 -13 -32 -4 -35 6 -2 1185 -3 2620 -2
l2607 2 0 -937 c0 -515 1 -1160 1 -1433 0 -274 3 -498 7 -499 4 0 269 -2 590
-2 l582 -2 1 650 c1 1815 4 2215 14 2218 5 2 1092 3 2413 2 l2404 -1 19 39
c23 44 125 205 300 472 172 261 252 393 256 416 3 18 -6 19 -270 19 -1858 3
-6403 10 -8414 15 l-2551 6 -65 -98z"/>
<path d="M13946 9743 c-1 -1 -88 -3 -193 -4 l-191 -2 -177 -291 c-186 -305
-189 -310 -278 -447 -64 -99 -111 -189 -103 -196 5 -5 384 -7 628 -4 l66 1 71
110 c39 60 71 114 71 119 0 5 4 11 8 13 11 4 312 503 312 516 0 6 4 12 8 14 9
3 92 155 92 167 0 6 -308 9 -314 4z"/>
<path d="M4117 8593 c-1 -1 -33 -3 -71 -4 -124 -4 -165 -20 -273 -100 -54 -41
-100 -76 -103 -79 -3 -4 -43 -35 -90 -70 -47 -36 -92 -70 -100 -76 -8 -7 -105
-84 -215 -171 -110 -87 -240 -190 -290 -228 -49 -38 -94 -73 -100 -78 -5 -4
-89 -69 -186 -145 -97 -75 -290 -227 -430 -338 -140 -110 -292 -229 -339 -264
-280 -211 -385 -328 -432 -485 -21 -69 -29 -207 -16 -265 22 -95 82 -184 156
-231 53 -33 176 -82 282 -111 75 -21 84 -21 2288 -22 1216 -1 2212 2 2212 7 0
18 -167 243 -292 392 -51 61 -234 289 -331 412 -78 99 -123 146 -147 157 -30
14 -81 15 -380 11 -735 -10 -1749 -15 -1764 -9 -13 5 -7 13 26 37 24 17 45 34
48 37 3 3 79 61 170 130 91 68 167 126 170 130 3 3 32 25 65 49 46 34 336 263
455 358 8 7 107 85 220 175 113 89 347 275 520 413 173 138 335 266 360 285
50 38 70 61 64 71 -2 4 -259 8 -571 9 -313 0 -644 2 -736 3 -93 1 -169 1 -170
0z"/>
<path d="M8418 8594 c-2 -1 -46 -4 -98 -5 -153 -5 -143 2 -135 -93 14 -162 59
-346 112 -451 106 -208 322 -380 601 -476 92 -32 219 -64 292 -74 25 -3 56 -8
70 -10 115 -22 213 -24 1440 -25 1216 -2 1187 -1 1288 -52 75 -38 119 -117
119 -217 1 -79 -21 -133 -73 -181 -92 -84 -237 -116 -509 -111 -60 1 -690 4
-1399 6 -1079 3 -1293 2 -1316 -10 -27 -14 -44 -35 -365 -460 -104 -137 -230
-304 -280 -370 -120 -158 -115 -146 -58 -139 59 7 394 7 2218 4 1271 -3 1508
-1 1645 15 19 2 60 7 90 10 329 36 686 182 872 357 140 132 226 290 277 508
31 133 32 146 37 305 11 450 -162 759 -521 930 -89 42 -206 82 -295 100 -8 2
-37 8 -65 15 -195 44 -416 55 -1085 51 -1381 -8 -1637 -5 -1744 19 -148 33
-207 112 -203 270 2 38 0 71 -3 71 -30 7 -906 20 -912 13z"/>
<path d="M840 5175 c-147 -30 -180 -91 -176 -328 2 -119 4 -138 26 -182 50
-100 108 -114 469 -114 141 0 333 0 426 -1 l170 0 0 -123 0 -124 -440 1 -440
1 -2 50 c0 28 -1 56 -2 63 -1 9 -11 11 -33 7 -18 -3 -46 -8 -63 -10 -16 -2
-61 -10 -98 -16 l-68 -12 2 -51 c3 -56 20 -122 41 -155 7 -12 38 -34 68 -49
l55 -27 510 -2 c570 -3 612 0 671 58 50 49 62 105 59 286 -3 205 -20 251 -106
287 -62 26 -130 29 -552 29 -367 0 -419 2 -425 15 -3 9 -5 59 -5 111 l0 96
411 3 412 2 0 -56 0 -56 38 6 c40 6 82 13 122 21 14 3 38 8 55 11 34 6 45 19
40 48 -2 12 -6 39 -10 61 -11 77 -57 124 -143 147 -55 15 -943 18 -1012 3z"/>
<path d="M2939 5166 c-3 -68 -4 -1043 -1 -1053 3 -9 154 -12 652 -13 l647 0 0
93 c0 50 -3 97 -8 102 -5 6 -183 10 -502 9 l-495 -1 -1 134 -1 133 290 0 290
0 0 94 0 94 -272 0 c-150 0 -281 1 -290 1 -16 1 -18 13 -18 116 0 63 3 115 8
116 4 0 227 2 497 2 l490 2 0 85 c1 47 0 90 -2 96 -3 8 -189 11 -643 11 l-640
0 -1 -21z"/>
<path d="M5037 4661 c0 -289 1 -534 2 -544 1 -16 13 -17 143 -15 l143 3 -1
203 0 202 138 0 c96 0 143 -4 154 -12 8 -7 23 -20 32 -29 9 -8 103 -85 207
-169 105 -85 192 -157 195 -160 3 -3 16 -14 30 -23 21 -15 53 -17 228 -17 165
0 201 2 190 13 -7 7 -103 77 -213 156 -110 80 -228 165 -263 190 l-62 46 132
6 c188 8 251 33 284 113 21 51 27 349 8 421 -17 68 -58 107 -134 128 -20 5
-284 11 -625 12 l-590 2 2 -526z m1050 321 c13 -7 26 -25 30 -40 9 -34 7 -188
-2 -203 -22 -34 -71 -39 -402 -40 -181 0 -342 0 -359 0 l-30 1 0 151 0 150
371 -3 c277 -2 376 -6 392 -16z"/>
<path d="M6838 5176 c4 -6 167 -251 362 -543 l355 -533 101 0 102 0 96 153
c54 83 149 232 212 330 63 98 114 181 114 183 0 3 5 10 10 17 6 7 25 35 43 62
138 215 194 302 203 321 l12 22 -150 0 -150 -1 -24 -39 c-14 -22 -33 -54 -43
-71 -10 -18 -74 -122 -141 -232 -67 -110 -149 -245 -182 -300 -34 -55 -67
-110 -75 -123 -14 -23 -18 -18 -125 149 -141 220 -156 241 -168 256 -5 7 -10
14 -10 17 0 5 -39 66 -176 277 l-42 66 -166 0 c-119 0 -164 -3 -158 -11z"/>
<path d="M9339 5156 c0 -17 -1 -260 -2 -541 l-1 -510 145 -3 145 -3 -1 538
c-1 296 -3 541 -4 544 0 3 -64 6 -141 6 l-140 0 -1 -31z"/>
<path d="M10653 5174 c-115 -23 -155 -67 -170 -184 -9 -75 -9 -656 1 -714 9
-56 34 -103 66 -126 63 -45 107 -48 612 -49 433 0 483 2 543 18 37 10 74 27
83 37 22 25 54 74 47 74 -2 0 0 12 6 26 8 24 15 222 7 229 -2 2 -19 6 -38 9
-19 3 -60 10 -90 16 -57 11 -111 20 -144 23 -19 2 -20 -5 -19 -110 l1 -113
-84 0 c-46 0 -194 -1 -329 -1 -135 0 -274 1 -310 1 l-65 0 0 340 0 340 394 0
393 0 -1 -92 c-2 -95 1 -121 13 -114 3 2 29 7 56 11 181 23 230 32 228 41 -1
6 -3 51 -4 100 -2 121 -28 180 -91 212 -24 13 -58 26 -74 29 -16 2 -240 6
-499 7 -352 2 -486 0 -532 -10z"/>
<path d="M12752 5171 c-6 -12 -8 -1018 -3 -1063 1 -4 292 -7 649 -5 l647 2 3
98 c1 53 -1 97 -5 98 -4 0 -231 1 -505 2 l-496 1 0 133 0 133 289 0 289 0 0
94 0 95 -262 -1 c-145 0 -275 1 -289 1 l-26 1 -1 115 c-1 82 3 115 11 116 7 0
230 2 497 2 l485 2 -2 90 c-1 50 -2 93 -2 96 -1 3 -287 6 -637 6 -571 0 -636
-2 -642 -16z"/>
<path d="M3061 3530 c-10 -7 -341 -538 -341 -548 0 -4 29 -8 65 -7 l65 0 39
61 39 61 192 0 192 0 40 -61 39 -61 75 -1 c41 0 74 4 74 9 0 10 -315 513 -336
536 -12 13 -126 22 -143 11z m138 -233 c29 -49 51 -91 48 -94 -7 -7 -236 -10
-247 -3 -8 5 17 52 93 173 34 55 23 63 106 -76z"/>
<path d="M3839 3532 l-27 -3 2 -277 1 -277 260 -1 c262 0 349 8 377 37 24 25
34 63 32 120 -3 69 -15 94 -57 115 -30 16 -30 17 -11 25 12 4 31 20 43 35 19
25 22 37 18 100 -5 83 -8 89 -50 110 -26 14 -73 17 -296 18 -147 0 -278 0
-292 -2z m498 -108 c19 -26 13 -93 -8 -105 -10 -5 -99 -9 -198 -9 l-180 0 1
63 c1 34 2 64 4 67 1 3 85 4 185 3 161 -2 185 -4 196 -19z m3 -224 c15 -24 12
-96 -5 -110 -11 -9 -64 -13 -178 -14 -221 -2 -205 -8 -202 72 2 37 3 67 4 68
1 1 84 1 186 0 153 -1 188 -4 195 -16z"/>
<path d="M4800 3530 c-35 -5 -36 -6 -36 -50 l-1 -46 142 1 142 0 -1 -215 c-1
-118 0 -222 2 -231 3 -12 17 -15 70 -15 l67 1 5 230 5 230 138 -1 c149 0 139
-4 139 56 0 11 0 26 -1 33 -1 9 -72 12 -318 12 -175 0 -334 -2 -353 -5z"/>
<path d="M5849 3529 c-47 -7 -79 -26 -89 -52 -4 -12 -8 -112 -9 -222 -1 -181
1 -203 18 -231 13 -21 31 -34 57 -41 22 -5 165 -9 319 -8 312 1 333 5 354 66
6 19 11 107 11 214 0 107 -5 195 -11 214 -21 60 -42 64 -345 65 -149 0 -286
-2 -305 -5z m507 -98 c8 -1 11 -54 10 -173 l-1 -173 -236 -3 -236 -2 0 174 c1
146 3 176 16 178 13 3 421 2 447 -1z"/>
<path d="M6990 3532 c-54 -7 -87 -23 -100 -50 -20 -40 -22 -397 -3 -445 23
-57 47 -61 308 -62 127 0 249 3 273 8 55 11 73 39 79 122 l5 64 -38 10 c-22 5
-55 11 -74 13 l-35 3 0 -55 0 -55 -192 -3 c-126 -1 -193 1 -194 8 -1 13 -1
305 0 328 1 16 17 17 187 17 206 -1 204 0 199 -67 l-3 -40 56 7 c90 10 93 12
91 53 -3 71 -17 107 -50 126 -28 17 -56 19 -258 20 -124 0 -237 0 -251 -2z"/>
<path d="M7851 3525 c-5 -8 -7 -488 -2 -540 1 -12 609 -15 626 -3 9 5 11 47 6
91 -1 4 -111 7 -246 7 l-245 0 0 69 0 70 118 0 c64 0 128 0 142 0 23 1 26 5
26 46 0 33 -4 45 -16 46 -8 1 -72 1 -142 1 l-128 0 0 63 0 63 68 1 c37 0 147
0 244 0 l177 1 -2 45 c-1 25 -6 45 -12 46 -70 7 -608 2 -614 -6z"/>
<path d="M8807 3532 c-15 -3 -17 -29 -17 -281 l0 -277 70 0 70 1 0 107 0 108
78 0 c241 0 379 6 400 19 36 19 49 66 47 161 -3 166 5 162 -355 164 -152 0
-284 0 -293 -2z m503 -112 c12 -18 10 -88 -2 -112 -8 -16 -27 -18 -193 -18
l-185 0 0 68 c0 38 2 71 6 74 3 3 86 5 185 4 148 -1 181 -4 189 -16z"/>
<path d="M9760 3530 c-14 -8 -10 -548 3 -552 7 -3 134 -4 282 -3 185 1 281 5
305 13 54 19 73 53 73 132 0 77 -12 104 -54 126 l-31 16 31 19 c38 23 51 55
50 117 -1 70 -11 94 -48 116 -30 17 -56 19 -318 20 -157 0 -289 -1 -293 -4z
m513 -99 c5 -5 11 -28 13 -50 6 -69 -1 -71 -210 -71 l-183 0 2 63 c1 34 3 64
3 67 3 9 365 1 375 -9z m0 -230 c22 -18 23 -94 2 -111 -19 -16 -363 -20 -374
-5 -6 8 -8 127 -2 131 0 0 81 0 179 0 136 -1 183 -4 195 -15z"/>
<path d="M10804 3525 c-9 -8 -12 -72 -11 -280 l2 -270 69 0 69 0 1 269 c1 147
-2 273 -5 278 -9 14 -108 16 -125 3z"/>
<path d="M11375 3528 c-54 -8 -81 -29 -93 -73 -14 -50 -8 -386 7 -422 21 -51
55 -57 311 -58 327 -2 341 4 344 126 l1 73 -35 7 c-19 4 -51 9 -70 11 l-35 3
0 -55 0 -55 -192 -3 -193 -2 0 177 0 178 178 -1 c97 -1 185 -2 194 -3 13 -1
16 -10 14 -38 -4 -61 0 -65 58 -58 85 11 86 12 86 59 0 84 -24 120 -88 133
-40 8 -432 9 -487 1z"/>
<path d="M5312 2539 c-47 -10 -55 -20 -60 -84 -4 -49 -2 -55 14 -55 11 0 36
-3 57 -6 l37 -7 0 42 0 41 150 0 150 0 0 -45 c0 -50 6 -47 -101 -47 l-65 1 2
-37 c1 -20 2 -40 3 -45 1 -4 25 -7 54 -6 111 3 107 5 107 -48 l0 -48 -148 0
-147 0 -3 48 c-3 40 -6 47 -20 43 -9 -3 -34 -8 -54 -12 -37 -6 -38 -7 -38 -50
0 -54 17 -91 44 -101 32 -10 387 -11 419 0 43 14 57 43 57 118 0 57 -3 69 -22
81 l-22 14 22 22 c38 38 26 159 -17 178 -22 10 -377 13 -419 3z"/>
<path d="M6056 2541 c-1 -3 -2 -100 -2 -216 l1 -210 226 0 c241 0 271 6 283
49 9 35 7 156 -4 176 -16 30 -67 39 -215 39 -77 0 -149 0 -161 0 -17 1 -21 8
-21 46 -1 52 -25 47 205 46 l153 -1 14 35 c8 19 15 36 15 39 0 6 -491 3 -494
-3z m395 -248 c6 -6 9 -30 7 -54 l-3 -44 -145 0 -145 0 -1 50 c0 28 0 52 2 55
5 11 274 4 285 -7z"/>
<path d="M6893 2542 c-13 -2 -31 -14 -42 -28 -17 -22 -19 -43 -20 -184 -2
-158 -1 -160 23 -185 29 -29 15 -27 285 -29 213 -1 250 4 270 42 6 12 9 83 8
180 -3 223 19 207 -275 207 -125 1 -237 -1 -249 -3z m412 -204 l0 -133 -180 0
-180 0 -1 133 0 132 181 0 181 0 -1 -132z"/>
<path d="M7682 2541 c-4 -3 -8 -100 -7 -216 l0 -210 55 0 54 0 -1 83 c-1 70 1
82 16 83 9 0 86 2 171 3 191 4 175 2 200 28 17 18 20 35 20 105 0 70 -3 86
-20 103 -11 11 -28 21 -37 21 -57 5 -444 5 -451 0z m395 -88 c11 -24 9 -71 -4
-84 -9 -9 -131 -13 -260 -10 l-32 1 1 55 1 55 143 0 c127 0 144 -2 151 -17z"/>
<path d="M8470 2331 l0 -218 54 1 53 1 -1 215 -1 215 -52 2 -53 1 0 -217z"/>
<path d="M8892 2331 l3 -216 210 0 c225 1 255 5 285 35 30 30 28 131 -2 160
-12 11 -27 20 -32 20 -6 0 2 11 18 23 25 21 29 31 32 81 2 47 -1 61 -21 84
l-23 27 -236 1 -236 1 2 -216z m404 137 c8 -9 8 -78 -1 -86 -3 -4 -70 -7 -148
-7 l-142 0 -3 39 c-2 21 -1 44 1 50 4 9 45 12 146 11 77 -1 143 -4 147 -7z
m-2 -177 c15 -12 19 -61 6 -81 -7 -12 -36 -15 -152 -15 l-143 0 -3 52 c-3 47
-1 52 20 55 48 7 261 -2 272 -11z"/>
</g>
</svg>
