<svg width="60" height="60" viewBox="0 0 60 60" fill="none" xmlns="http://www.w3.org/2000/svg">
<path d="M30.0145 5.41205e-06C29.5629 0.00092901 29.161 0.279875 29.0127 0.695518L27.1113 6.01767L21.3285 6.13267L21.329 6.13221C20.8788 6.14237 20.484 6.42824 20.3437 6.84526C20.2039 7.26229 20.3494 7.71996 20.7067 7.9869L25.318 11.3957L23.6446 16.7903H23.6451C23.5162 17.2105 23.674 17.6641 24.0379 17.9222C24.4019 18.1804 24.8934 18.1864 25.2639 17.9379L30.014 14.7194L34.7598 17.9379H34.7602C35.1313 18.1896 35.6251 18.185 35.9906 17.9264C36.3564 17.6678 36.5142 17.2119 36.3839 16.7903L34.7105 11.3956L39.3218 7.98689C39.6791 7.71996 39.8246 7.26228 39.6848 6.84526C39.545 6.42823 39.1502 6.14236 38.6995 6.1322L32.9168 6.01721L31.0154 0.695051L31.0159 0.695512C30.8675 0.27987 30.4656 0.000922179 30.0145 0L30.0145 5.41205e-06ZM30.0145 4.18043L31.1529 7.37496H31.1524C31.2984 7.78367 31.6893 8.06077 32.1334 8.07001L35.602 8.14067L32.8382 10.1815C32.4846 10.4429 32.3349 10.8909 32.4628 11.3051L33.4661 14.538L30.6217 12.6085C30.2568 12.3605 29.7719 12.3605 29.407 12.6085L26.5621 14.538L27.5654 11.3051H27.5658C27.6938 10.8909 27.5445 10.4429 27.1905 10.1815L24.4266 8.14067L27.8933 8.07001C28.3374 8.06077 28.7284 7.78367 28.8738 7.37496L30.0145 4.18043ZM8.49664 7.62938C8.04736 7.63031 7.6469 7.90971 7.49903 8.32674L5.90048 12.8444L1.03433 12.9432V12.9436C0.585054 12.9529 0.191228 13.2406 0.0518881 13.6604C-0.0869662 14.0802 0.0589968 14.5406 0.416331 14.8085L4.29345 17.7L2.8855 22.2744L2.88597 22.2739C2.7547 22.6974 2.91062 23.156 3.27506 23.4169C3.63903 23.6774 4.13143 23.6825 4.50103 23.4299L8.49669 20.6963L12.4923 23.4299H12.4919C12.862 23.6825 13.3544 23.6774 13.7183 23.4169C14.0823 23.156 14.2387 22.6974 14.1074 22.2739L12.6995 17.6995L16.5766 14.808V14.8085C16.9344 14.5406 17.0803 14.0802 16.9415 13.6604C16.8022 13.2406 16.4083 12.9529 15.9586 12.9436L11.0924 12.8448L9.49388 8.3272V8.32674C9.34601 7.90971 8.94603 7.6303 8.49675 7.62938H8.49664ZM51.5033 7.63723C51.0545 7.6377 50.6545 7.91618 50.5061 8.33228L48.9076 12.8499L44.0414 12.9487L44.041 12.9492C43.5917 12.9589 43.1979 13.2466 43.0585 13.6664C42.9197 14.0862 43.0656 14.5467 43.4234 14.8141L47.3006 17.7056L45.8926 22.2799C45.7613 22.7034 45.9177 23.162 46.2817 23.4225C46.6457 23.683 47.1381 23.6885 47.5077 23.4354L51.5033 20.7019L55.499 23.4354C55.8686 23.6885 56.361 23.683 56.725 23.4225C57.0894 23.162 57.2453 22.7034 57.114 22.2799L55.7061 17.7056L59.5832 14.8141C59.941 14.5467 60.087 14.0862 59.9481 13.6664C59.8088 13.2466 59.415 12.9589 58.9657 12.9492L54.0995 12.8504L52.501 8.33275L52.5005 8.33228C52.3522 7.91618 51.9522 7.63769 51.5034 7.63723H51.5033ZM8.49664 11.832L9.33642 14.2099C9.48097 14.6209 9.87053 14.8999 10.3127 14.9091L12.8732 14.9613L10.8349 16.4789H10.8353C10.4828 16.7416 10.3335 17.1924 10.4619 17.6085L11.2022 20.0188L9.09988 18.5802C8.73733 18.3327 8.25584 18.3327 7.89329 18.5802L5.791 20.0188L6.53126 17.6085H6.53079C6.65922 17.1924 6.51041 16.7416 6.15782 16.4789L4.11947 14.9613L6.67999 14.9091C7.12263 14.8999 7.5122 14.6209 7.65674 14.2099L8.49664 11.832ZM51.5033 11.8357L52.3431 14.2136V14.214C52.4876 14.6246 52.8772 14.9036 53.3198 14.9133L55.8803 14.9654L53.842 16.4849C53.4903 16.7472 53.3415 17.1966 53.469 17.6122L54.2093 20.0226L52.107 18.584L52.1065 18.5844C51.744 18.3364 51.2625 18.3364 50.8999 18.5844L48.7976 20.023L49.5379 17.6127V17.6122C49.6654 17.1966 49.5166 16.7472 49.1645 16.4849L47.1261 14.9654L49.6866 14.9133H49.6871C50.1293 14.9036 50.5188 14.6246 50.6634 14.214L51.5033 11.8357ZM28.7722 21.9705C18.0109 21.9705 9.26583 30.4958 9.26583 40.9851C9.26583 46.3793 11.579 51.2535 15.2889 54.7162V54.7166C15.3221 54.7522 15.3572 54.785 15.3946 54.8155C18.8883 58.0284 23.5976 60 28.7717 60C33.9294 60 38.624 58.0405 42.116 54.8455L42.1165 54.846C42.199 54.7887 42.2719 54.7208 42.3345 54.6437C46.0013 51.185 48.285 46.3418 48.285 40.9848C48.285 30.4952 39.5336 21.9702 28.7726 21.9702L28.7722 21.9705ZM28.7722 24.0395C38.3856 24.0395 46.1602 31.6134 46.1602 40.9851C46.1602 45.222 44.5726 49.0911 41.9428 52.0593C40.384 48.3744 37.2201 45.5028 33.2947 44.236C35.4363 42.8296 36.8506 40.4568 36.8506 37.7703C36.8506 33.4619 33.2147 29.951 28.7727 29.951C24.3306 29.951 20.7009 33.4618 20.7009 37.7703C20.7009 40.4568 22.1113 42.8296 24.2506 44.236C20.3265 45.5028 17.1664 48.3754 15.6087 52.0612C12.9789 49.0926 11.3913 45.2229 11.3913 40.9847C11.3913 31.6127 19.1588 24.039 28.7733 24.039L28.7722 24.0395ZM28.7722 32.0204C32.0758 32.0204 34.7269 34.5895 34.7269 37.7707C34.7269 40.9522 32.0758 43.513 28.7722 43.513C25.4685 43.513 22.8236 40.9522 22.8236 37.7707C22.8236 34.5891 25.4685 32.0204 28.7722 32.0204ZM28.7722 45.5977C34.1909 45.5977 38.7296 48.9852 40.2917 53.6839C37.225 56.3269 33.1943 57.9309 28.7722 57.9309C24.3514 57.9309 20.3208 56.3293 17.2564 53.6876C18.817 48.9866 23.3519 45.5977 28.7722 45.5977Z" fill="black"/>
</svg>
