<svg width="60" height="60" viewBox="0 0 60 60" fill="none" xmlns="http://www.w3.org/2000/svg">
<path d="M58.9944 44.379H58.6126V15.2963C58.6126 15.0428 58.5067 14.8 58.3182 14.6203C58.1298 14.441 57.874 14.3403 57.6075 14.3403H47.2958V0.956021C47.2958 0.702506 47.1899 0.459655 47.0015 0.279978C46.8131 0.100726 46.5573 0 46.2908 0H12.3017C11.7462 0 11.2966 0.428079 11.2966 0.956021V14.3403H1.00502C0.450019 14.3403 0 14.7684 0 15.2963V47.3421C0 47.5957 0.105886 47.8389 0.294327 48.0182C0.482767 48.1974 0.73851 48.2982 1.00502 48.2982H32.5833V49.3498C32.5833 49.6033 32.6892 49.8466 32.8776 50.0258C33.066 50.2051 33.3218 50.3058 33.5883 50.3058H36.0604C36.2484 50.8679 36.4907 51.4116 36.7841 51.931L35.0756 53.5178V53.5182C34.8791 53.6983 34.7682 53.9467 34.7682 54.2062C34.7682 54.4662 34.8791 54.7145 35.0756 54.8947L38.1507 57.7243V57.7247C38.5415 58.0887 39.1669 58.0887 39.5577 57.7247L41.3067 56.1187V56.1183C41.8868 56.3995 42.492 56.6296 43.1157 56.8067V59.044C43.1157 59.2975 43.2216 59.5408 43.4101 59.72C43.5985 59.8993 43.8542 60 44.1207 60H48.4625C48.729 60 48.9848 59.8993 49.1732 59.72C49.3617 59.5408 49.4676 59.2975 49.4676 59.044V56.8067C50.0912 56.6296 50.6964 56.3991 51.2766 56.1183L53.0256 57.7243L53.0251 57.7247C53.4159 58.0887 54.0413 58.0887 54.4321 57.7247L57.5072 54.8951L57.5077 54.8947C57.7042 54.7146 57.815 54.4662 57.815 54.2062C57.815 53.9467 57.7042 53.6984 57.5077 53.5182L55.7992 51.9315V51.931C56.0926 51.4116 56.3349 50.8679 56.5229 50.3058H58.995C59.2615 50.3058 59.5172 50.2051 59.7057 50.0258C59.8941 49.8466 60 49.6033 60 49.3498V45.3345C60 45.081 59.8941 44.8377 59.7057 44.6585C59.5172 44.4792 59.2615 44.3785 58.995 44.3785L58.9944 44.379ZM56.5223 44.379C56.3343 43.8174 56.092 43.2732 55.7985 42.7538L56.6026 42.0274V44.3982L56.5223 44.379ZM13.3065 1.93171H45.2856V18.7009H41.3862V5.44986C41.3862 5.19635 41.2803 4.9535 41.0919 4.77382C40.9035 4.59457 40.6477 4.49384 40.3812 4.49384H18.1904C17.6354 4.49384 17.1854 4.92192 17.1854 5.44986V18.7194L13.3062 18.7199L13.3065 1.93171ZM39.4369 14.3217H19.3366V6.40599H39.4369V14.3217ZM2.01006 46.3872V16.2534H11.2967V19.6763C11.2967 19.9298 11.4025 20.1727 11.591 20.3524C11.7794 20.5316 12.0352 20.6323 12.3017 20.6323H18.1909C18.4574 20.6323 18.7131 20.5316 18.9015 20.3524C19.09 20.1727 19.1959 19.9298 19.1959 19.6763V16.2534H39.2962V19.6763C39.2962 19.9298 39.4021 20.1727 39.5906 20.3524C39.779 20.5316 40.0348 20.6323 40.3013 20.6323H46.3314C46.5979 20.6323 46.8536 20.5316 47.0421 20.3524C47.2305 20.1727 47.3364 19.9298 47.3364 19.6763V16.2534H56.623V38.9499L54.472 37.0379C54.0812 36.6734 53.4558 36.6734 53.065 37.0379L51.316 38.6439C50.7363 38.3631 50.1307 38.133 49.507 37.9555V35.6422C49.507 35.3887 49.4011 35.1454 49.2127 34.9662C49.0242 34.7869 48.7685 34.6862 48.502 34.6862H44.1203C43.5653 34.6862 43.1153 35.1139 43.1153 35.6422V37.8795V37.8791C42.4917 38.0562 41.8864 38.2867 41.3063 38.5675L39.5573 36.9615C39.1665 36.597 38.5411 36.597 38.1503 36.9615L35.0752 39.7911C34.8787 39.9712 34.7678 40.22 34.7678 40.4795C34.7678 40.739 34.8786 40.9878 35.0752 41.168L36.7837 42.7547C36.4903 43.2741 36.248 43.8183 36.06 44.38H33.5879C33.0329 44.38 32.5829 44.808 32.5829 45.336V46.3876L2.01006 46.3872ZM57.9902 48.2993H55.7791C55.3134 48.2954 54.906 48.5959 54.7943 49.0261C54.5753 49.8959 54.2011 50.7234 53.6888 51.4733C53.4276 51.8553 53.4869 52.3597 53.8292 52.6776L55.3772 54.0924L53.7489 55.6028L52.1611 54.1496V54.15C51.8327 53.844 51.3279 53.7885 50.9349 54.016C50.1098 54.4979 49.2061 54.8465 48.2618 55.0488C47.8019 55.1474 47.4757 55.5371 47.4779 55.9856V58.0125H45.126V56.062C45.1282 55.6135 44.802 55.2238 44.3421 55.1252C43.3972 54.9233 42.494 54.5746 41.6686 54.0928C41.276 53.8653 40.7712 53.9204 40.4428 54.2264L38.855 55.6796L37.2267 54.1692L38.7747 52.7544H38.7742C39.117 52.436 39.1758 51.932 38.9151 51.5496C38.3987 50.8019 38.0245 49.9735 37.8096 49.1024C37.6979 48.6722 37.29 48.3718 36.8248 48.3756H34.5935V46.2724H36.8248C37.29 46.2766 37.6979 45.9758 37.8096 45.546C38.0312 44.6949 38.4054 43.8865 38.9151 43.1559C39.1758 42.7739 39.117 42.2695 38.7742 41.9516L37.2263 40.5367L38.8545 39.0263L40.4423 40.4796L40.4428 40.4792C40.7712 40.7852 41.276 40.8407 41.6686 40.6132C42.4851 40.1194 43.3816 39.7579 44.322 39.5424C44.7819 39.4438 45.1081 39.0541 45.1059 38.6056V36.5979H47.4376V38.6248V38.6244C47.4354 39.0729 47.7615 39.4626 48.2214 39.5616C49.1663 39.7635 50.0695 40.1122 50.895 40.594C51.2876 40.8215 51.7923 40.7664 52.1208 40.46L53.7086 39.0067L55.3368 40.5171L53.7889 41.9319L53.7893 41.9324C53.4466 42.2508 53.3878 42.7548 53.6485 43.1367C54.1613 43.8866 54.535 44.7145 54.754 45.5844C54.8657 46.0141 55.2735 46.315 55.7388 46.3108H57.9903L57.9902 48.2993Z" fill="black"/>
<path d="M46.331 41.2433C44.6471 41.2885 43.0499 41.9646 41.8869 43.1242C40.724 44.2833 40.0896 45.8331 40.121 47.4353C40.1528 49.0374 40.8478 50.5628 42.0557 51.6802C43.2635 52.7976 44.8859 53.416 46.5707 53.401C48.255 53.3865 49.8657 52.7399 51.0516 51.6017C52.2374 50.4638 52.9032 48.9261 52.9041 47.3235C52.8776 45.6888 52.1705 44.131 50.9385 42.9911C49.7064 41.8515 48.0496 41.2229 46.3312 41.2434L46.331 41.2433ZM46.331 51.492C45.1805 51.4467 44.0948 50.9725 43.3091 50.1719C42.5231 49.3712 42.1005 48.3085 42.1314 47.2138C42.1628 46.1187 42.646 45.0794 43.4765 44.3209C44.307 43.5621 45.4183 43.1446 46.5696 43.1592C47.7209 43.1737 48.8202 43.6188 49.6296 44.3982C50.4385 45.1775 50.8926 46.2283 50.894 47.3234C50.8724 48.4544 50.3798 49.5312 49.5242 50.3165C48.6685 51.1019 47.52 51.5316 46.331 51.5112V51.492Z" fill="black"/>
</svg>
