<svg width="55" height="60" viewBox="0 0 55 60" fill="none" xmlns="http://www.w3.org/2000/svg">
<path d="M38.8216 19.3968L31.691 18.4689L28.5034 12.7248C28.3179 12.3842 27.9297 12.1684 27.5038 12.1684C27.0779 12.1684 26.6896 12.3842 26.5042 12.7248L23.3166 18.4689L16.186 19.3968C15.7695 19.4505 15.4229 19.7091 15.291 20.0643C15.1591 20.4198 15.2652 20.8111 15.5642 21.0745L20.7288 25.5453L19.5071 31.8616C19.4382 32.2308 19.6103 32.6031 19.9514 32.8225C20.2925 33.0424 20.7442 33.0715 21.1176 32.8979L27.5038 29.9371L33.89 32.8979C34.0457 32.9759 34.2217 33.0168 34.4007 33.0164C34.6362 33.0169 34.8658 32.9512 35.0562 32.8287C35.4082 32.6049 35.5813 32.2194 35.5005 31.8418L34.2787 25.5254L39.4434 21.0547C39.7423 20.7912 39.8484 20.4 39.7166 20.0449C39.5847 19.6893 39.2381 19.4307 38.8216 19.3769V19.3968ZM32.3134 24.4992L32.3129 24.4988C32.0521 24.7239 31.9316 25.0487 31.9911 25.3676L32.9242 30.2234L28.0264 27.9337H28.0259C27.6997 27.779 27.308 27.779 26.9817 27.9337L22.0839 30.2234L23.0612 25.3676C23.1202 25.0487 23.0002 24.7239 22.7389 24.4988L18.7296 21.0547L24.1718 20.3537C24.5333 20.3057 24.8447 20.1026 25.0048 19.8109L27.5039 15.3896L29.9582 19.8109C30.1189 20.1026 30.4303 20.3057 30.7912 20.3537L36.2781 21.0543L32.3134 24.4992ZM27.5038 5.62915C22.1602 5.62915 17.0358 7.51537 13.2582 10.8726C9.47941 14.23 7.35685 18.7835 7.35685 23.5313C7.35685 28.2796 9.47954 32.8331 13.2582 36.1899C17.0365 39.5477 22.1608 41.4338 27.5038 41.4338C32.8468 41.4338 37.9718 39.5476 41.7494 36.1899C45.5282 32.8325 47.6507 28.279 47.6507 23.5313C47.6448 18.7847 45.5202 14.2343 41.7429 10.8783C37.9657 7.5218 32.8447 5.63389 27.5037 5.62904L27.5038 5.62915ZM27.5038 39.4611C22.7493 39.4611 18.1901 37.7829 14.8285 34.7957C11.4663 31.8085 9.57766 27.7568 9.57766 23.5319C9.57766 19.3075 11.4663 15.2558 14.8285 12.2686C18.1901 9.28147 22.7493 7.60324 27.5038 7.60324C32.2583 7.60324 36.8174 9.28147 40.1791 12.2686C43.5413 15.2558 45.4299 19.3075 45.4299 23.5319C45.424 27.755 43.5334 31.8036 40.1726 34.7899C36.8124 37.7759 32.2563 39.4558 27.5037 39.4611H27.5038ZM53.615 20.1466L50.2831 16.7813L50.6827 12.3402H50.6832C50.7774 11.1655 50.3961 9.99973 49.6077 9.05284C48.8199 8.10645 47.6765 7.44161 46.3848 7.17812L41.4979 6.1912L38.9101 2.38187C38.2145 1.3597 37.1256 0.596153 35.845 0.233076C34.5647 -0.129527 33.1794 -0.0674125 31.9462 0.407994L27.3702 2.17477L22.7387 0.466984C21.5076 0.0158165 20.1346 -0.0269202 18.8707 0.346263C17.6063 0.719446 16.5354 1.48388 15.8526 2.50036L13.2763 6.32953L8.40031 7.36581C7.10865 7.64471 5.97273 8.32586 5.19819 9.28553C4.4237 10.2456 4.06225 11.4202 4.17976 12.5965L4.63493 17.0377L1.34764 20.433C0.478444 21.3287 0 22.472 0 23.655C0 24.838 0.47847 25.9813 1.34764 26.8775L4.67961 30.2427L4.27998 34.6839C4.17635 35.8705 4.55863 37.0503 5.35643 38.006C6.15472 38.962 7.31448 39.6291 8.62239 39.8851L13.5202 40.872L16.1302 44.6813C17.1447 46.1287 18.9212 47.0148 20.8396 47.0305C21.5804 47.0301 22.3137 46.8957 22.9945 46.6358L27.6146 44.8889L32.2461 46.5962C33.4698 47.0526 34.8373 47.1046 36.1007 46.7425C37.3636 46.3803 38.439 45.6282 39.1322 44.6223L41.2425 41.4937V57.1661L28.1037 49.2707C27.7279 49.0451 27.2355 49.0451 26.8597 49.2707L13.7209 57.1661V44.9181C13.7209 44.373 13.2236 43.9311 12.6102 43.9311C11.9964 43.9311 11.4996 44.373 11.4996 44.9181V59.0114C11.4961 59.3789 11.7232 59.7172 12.0881 59.8899C12.2513 59.9591 12.4293 59.9966 12.6102 59.9983C12.8314 59.9988 13.0481 59.9406 13.232 59.8305L27.5043 51.3235L41.7537 59.8309V59.8305C42.0943 60.0354 42.5346 60.0561 42.8976 59.8842C43.2605 59.7128 43.4871 59.3767 43.4866 59.0114V40.368L46.6074 39.697V39.6966C47.899 39.4181 49.0349 38.737 49.8095 37.7769C50.584 36.8172 50.9454 35.6422 50.8279 34.4659L50.3946 30.015L53.6601 26.6197C54.5323 25.7174 55.0078 24.5652 54.9999 23.3751C54.9915 22.1855 54.5001 21.0387 53.6156 20.1456L53.615 20.1466ZM51.9381 25.3478L48.4064 29.029C48.21 29.2303 48.1138 29.4938 48.1396 29.7595L48.6062 34.6347C48.6791 35.3436 48.4619 36.052 47.9948 36.6301C47.5278 37.2081 46.842 37.6174 46.0625 37.7831L40.7651 38.8983C40.4721 38.9591 40.2197 39.123 40.065 39.3521L37.2551 43.5369C36.8565 44.1603 36.2169 44.634 35.4547 44.8696C34.6931 45.1058 33.8606 45.0877 33.1124 44.8199L28.0481 42.9544C27.7744 42.8531 27.4665 42.8531 27.1928 42.9544L22.1502 44.8199C21.4143 45.1001 20.5898 45.1358 19.8272 44.9199C19.0646 44.7044 18.4145 44.2519 17.9966 43.6452L15.1307 39.4904C14.974 39.2648 14.7221 39.1049 14.4311 39.0463L9.08899 37.9607C8.31005 37.8021 7.6209 37.3993 7.14782 36.827C6.67479 36.2547 6.4492 35.5502 6.51217 34.8421L6.93412 30.0158C6.95693 29.7537 6.86074 29.4946 6.66785 29.2955L3.06907 25.5844C2.54696 25.0469 2.25987 24.3604 2.25987 23.6502C2.25987 22.9401 2.54696 22.2535 3.06907 21.7161L6.63409 18.0054V18.005C6.83044 17.8037 6.92663 17.5402 6.90085 17.2749L6.40105 12.4288C6.32965 11.7256 6.54336 11.0229 7.00349 10.4475C7.46361 9.87211 8.14042 9.46192 8.9109 9.29051L14.2421 8.1556C14.5351 8.0948 14.7875 7.9309 14.9422 7.7018L17.7521 3.51699C18.1626 2.89266 18.8166 2.42344 19.59 2.19789C20.3635 1.97234 21.203 2.00623 21.9502 2.29306L26.9591 4.15852C27.2328 4.25986 27.5407 4.25986 27.8144 4.15852L32.857 2.24365C33.5929 1.96343 34.4174 1.92819 35.18 2.14364C35.9426 2.35953 36.5926 2.81202 37.0106 3.4183L39.876 7.5731H39.8765C40.0332 7.79869 40.2851 7.95907 40.5761 8.01722L45.9182 9.10284C46.7036 9.26234 47.3972 9.669 47.8708 10.2479C48.3443 10.8268 48.5664 11.5384 48.495 12.2513L48.0731 17.1168C48.0503 17.379 48.1465 17.6385 48.3394 17.8372L51.9381 21.4791C52.4602 22.0166 52.7473 22.7035 52.7473 23.4133C52.7473 24.1235 52.4602 24.81 51.9381 25.3479L51.9381 25.3478Z" fill="black"/>
</svg>
