<svg width="64" height="38" viewBox="0 0 64 38" fill="none" xmlns="http://www.w3.org/2000/svg">
<path d="M59.7344 18.441C59.718 18.4034 59.7394 18.3721 59.718 18.3408C59.7016 18.3027 59.6578 18.3027 59.6414 18.2713C56.8449 12.7837 52.8548 8.21124 48.0606 5.00569C48.0392 4.98011 48.0392 4.92999 48.0064 4.9112C47.9732 4.89867 47.9458 4.9112 47.913 4.89867C43.2218 1.7939 37.7932 0 32.0028 0C26.207 0 20.7778 1.81261 16.082 4.89867C16.0492 4.9112 16.0219 4.89188 15.9891 4.9112C15.9617 4.92999 15.9504 4.9869 15.9317 5.01144C11.1485 8.2103 7.15847 12.777 4.36732 18.2525C4.345 18.3021 4.29626 18.3021 4.27986 18.3402C4.25753 18.3715 4.27986 18.4211 4.26346 18.4524C1.55977 23.8367 0 30.0469 0 36.6828C0 37.41 0.514765 38 1.13839 38H62.8506C63.4852 38 63.9999 37.4043 63.9999 36.6828C64.0113 30.0403 62.4375 23.8181 59.7343 18.4418L59.7344 18.441ZM29.2888 32.2608C29.2888 30.5484 30.5173 29.1503 32.0138 29.1503C33.4971 29.1503 34.7228 30.5484 34.7228 32.2608C34.7228 33.9665 33.497 35.3656 32.0138 35.3656C30.5169 35.3656 29.2888 33.9731 29.2888 32.2608ZM36.0995 35.3656C36.6248 34.4561 37.002 33.427 37.002 32.2608C37.002 31.1628 36.668 30.1908 36.192 29.3251L43.723 20.6877C44.1717 20.1735 44.1717 19.3444 43.723 18.8302C43.2738 18.3034 42.5454 18.316 42.0976 18.8302L34.5775 27.4686C33.8109 26.9351 32.9626 26.5404 32 26.5404C29.2473 26.5404 26.9977 29.1121 26.9977 32.2796C26.9977 33.4271 27.3753 34.4687 27.906 35.3844H2.31526C2.49566 30.1406 3.72693 25.2231 5.75236 20.8509L11.3842 24.5707C11.5591 24.6898 11.7619 24.7524 11.9641 24.7524C12.3586 24.7524 12.744 24.5206 12.9549 24.0873C13.2724 23.467 13.0811 22.6636 12.5449 22.2939L6.9104 18.5725C9.28289 14.2762 12.4517 10.6321 16.1897 7.92242L19.446 14.3832C19.6596 14.8092 20.0482 15.0484 20.4368 15.0484C20.6336 15.0484 20.8418 14.9857 21.0117 14.8667C21.5538 14.509 21.7501 13.6998 21.433 13.0728L18.1605 6.58123C21.9774 4.25954 26.2906 2.91151 30.8638 2.71678V10.1685C30.8638 10.902 31.3785 11.4857 32.0103 11.4857C32.6399 11.4857 33.151 10.8968 33.151 10.1685V2.71678C37.7237 2.91151 42.0341 4.26007 45.8484 6.58123L42.5813 13.0728C42.2637 13.6941 42.456 14.5033 43.0031 14.8667C43.178 14.9857 43.3807 15.0484 43.5693 15.0484C43.9716 15.0484 44.3492 14.8098 44.5629 14.3832L47.8191 7.9156C51.5623 10.632 54.7261 14.2762 57.0957 18.5662L51.4684 22.2939C50.9186 22.6578 50.73 23.4608 51.0498 24.0941C51.2603 24.5206 51.6602 24.753 52.0433 24.753C52.2406 24.753 52.4456 24.6903 52.6182 24.5713L58.2501 20.8457C60.2859 25.2244 61.5063 30.1477 61.6949 35.3858L36.0948 35.3853L36.0995 35.3656Z" fill="black"/>
</svg>
